<svg width="2652" height="548" viewBox="0 0 2652 548" fill="none" xmlns="http://www.w3.org/2000/svg">
<g opacity="0.3">
<path d="M1014.67 547.274C1005.2 547.274 995.983 546.827 987.124 545.935C968.543 544.064 951.377 540.223 936.102 534.517C919.684 528.386 905.284 520.032 893.299 509.688C869.212 488.896 857.161 463.997 845.506 439.916C843.216 435.188 840.849 430.299 838.445 425.555C822.045 393.221 801.255 364.899 774.892 338.969C722.303 287.244 648.344 243.1 561.009 211.311C460.006 174.548 351.412 156.235 255.228 159.746C198.696 161.811 124.001 181.445 90.6179 214.976C70.8066 234.876 69.2091 256.96 86.0013 278.837L85.6678 278.929C76.8632 267.456 73.027 255.954 74.2691 244.742C75.4086 234.458 80.802 224.404 90.3028 214.861C105.413 199.683 130.332 186.231 162.367 175.957C191.968 166.465 224.937 160.629 255.206 159.524C305.542 157.688 359.077 161.763 414.323 171.638C464.403 180.591 513.82 193.874 561.199 211.119C648.586 242.926 722.589 287.094 775.208 338.85C801.585 364.797 822.386 393.135 838.797 425.486C841.204 430.23 843.571 435.122 845.857 439.85C857.502 463.913 869.545 488.795 893.6 509.556C916.862 529.637 948.351 541.801 987.186 545.711C1040.97 551.126 1106.27 539.8 1161.88 515.412C1242.01 480.267 1297.62 429.112 1351.41 379.643C1360.84 370.972 1370.58 362.006 1380.23 353.348C1405.29 330.866 1439.22 301.733 1479.55 275.779C1520.77 249.251 1562.65 229.76 1607.6 216.191C1635.12 207.885 1664.28 202.289 1694.27 199.56C1721.97 197.037 1751.3 196.881 1781.43 199.091C1833.11 202.884 1888.78 213.598 1951.64 231.843C2075.42 267.771 2199.05 311.379 2319.12 361.46C2433.25 409.06 2545.18 462.923 2651.8 521.547L2651.55 521.71C2430.53 400.184 2194.99 302.726 1951.48 232.041C1813.91 192.106 1704.69 187.131 1607.77 216.387C1509.17 246.149 1440.29 299.86 1380.54 353.469C1370.89 362.125 1361.14 371.091 1351.72 379.762C1297.92 429.249 1242.29 480.419 1162.1 515.588C1136.19 526.953 1107.04 535.818 1077.8 541.222C1062.36 544.078 1047 545.944 1032.17 546.772C1026.25 547.109 1020.41 547.274 1014.67 547.274Z" fill="#FFE492"/>
<path d="M1023.93 534.943C999.781 534.943 977.408 532.181 957.414 526.728C935.118 520.648 915.878 511.226 900.226 498.727C898.841 497.619 897.466 496.475 896.14 495.321C872.309 474.62 859.723 450.044 847.555 426.276C845.093 421.473 842.55 416.504 839.971 411.683C824.607 382.978 806.108 357.677 783.409 334.341C780.613 331.468 777.719 328.589 774.799 325.784C721.436 274.504 646.877 230.919 559.182 199.742C457.45 163.606 348.548 146.051 252.536 150.31C196.414 152.826 122.064 172.782 88.5382 206.055C68.463 225.98 66.1914 248.107 81.9613 270.048L81.6242 270.136C73.3582 258.637 69.9617 247.112 71.5335 235.888C72.9771 225.579 78.5904 215.503 88.2231 205.941C103.487 190.789 128.333 177.321 160.067 166.994C189.398 157.449 222.224 151.446 252.503 150.09C302.777 147.86 356.371 151.545 411.793 161.042C461.994 169.645 511.645 182.602 559.365 199.552C647.111 230.748 721.711 274.359 775.106 325.668C778.027 328.474 780.925 331.356 783.721 334.231C806.434 357.583 824.945 382.896 840.315 411.617C842.898 416.438 845.441 421.406 847.903 426.212C860.068 449.965 872.643 474.523 896.441 495.196C897.763 496.345 899.137 497.49 900.519 498.595C932.865 524.432 977.309 534.943 1024.05 534.943C1024.3 534.943 1024.56 534.943 1024.81 534.943C1024.52 534.941 1024.23 534.943 1023.93 534.943ZM1033.9 534.789C1077.36 533.449 1122.19 523.417 1160.66 508.494C1243.63 476.172 1303.26 426.249 1360.93 377.972C1363.31 375.982 1365.68 373.996 1368.06 372.01C1373.27 367.652 1379.45 362.492 1385.76 357.29C1414.06 333.962 1448.32 306.82 1487.77 282.389C1529.74 256.393 1571.68 237.103 1615.97 223.413C1643.18 215.01 1671.94 209.091 1701.44 205.82C1728.78 202.788 1757.67 201.932 1787.3 203.273C1838.49 205.591 1893.53 214.378 1955.57 230.14C2016.06 245.483 2065.78 259.927 2112.05 275.594C2177.59 297.81 2240.02 323.407 2292.45 345.515C2414.34 397.062 2533.93 455.593 2647.91 519.485L2647.66 519.646C2533.69 455.763 2414.11 397.236 2292.24 345.695C2239.82 323.59 2177.4 297.997 2111.87 275.787C2065.62 260.125 2015.91 245.686 1955.43 230.347C1820.29 196.01 1712.47 193.868 1616.14 223.611C1516.15 254.513 1444.95 308.885 1386.06 357.422C1379.74 362.624 1373.57 367.782 1368.35 372.143C1365.98 374.126 1363.6 376.114 1361.23 378.104C1303.54 426.397 1243.89 476.337 1160.85 508.683C1140.27 516.67 1118.36 523.014 1095.74 527.538C1074.68 531.745 1053.92 534.177 1033.9 534.789Z" fill="#FFE492"/>
<path d="M1034.15 522.896C1031.24 522.896 1028.35 522.859 1025.49 522.782C1001.36 522.141 979.024 518.815 959.113 512.891C937.338 506.412 918.472 496.817 903.043 484.368C901.672 483.258 900.306 482.112 898.987 480.958C875.423 460.358 862.314 436.11 849.64 412.663C846.998 407.776 844.265 402.722 841.495 397.818C825.373 369.209 806.386 344.111 783.442 321.09C780.602 318.243 777.664 315.388 774.699 312.606C720.563 261.772 645.403 218.747 557.35 188.181C454.893 152.673 345.683 135.872 249.839 140.881C195.876 143.744 121.741 162.562 86.4935 197.105C66.1288 217.063 63.1646 239.25 77.9196 261.268L77.5789 261.349C69.8478 249.814 66.8983 238.264 68.8035 227.019C70.5549 216.677 76.4027 206.575 86.182 196.991C101.608 181.874 126.373 168.402 157.803 158.027C186.858 148.436 219.534 142.27 249.806 140.663C300.022 138.041 353.674 141.334 409.268 150.452C459.594 158.707 509.476 171.336 557.533 187.992C645.638 218.577 720.838 261.627 775.007 312.489C777.971 315.274 780.914 318.129 783.753 320.979C806.708 344.014 825.706 369.127 841.835 397.752C844.605 402.658 847.339 407.713 849.98 412.6C862.651 436.033 875.75 460.263 899.284 480.839C900.603 481.993 901.962 483.137 903.332 484.243C966.027 534.825 1077.14 529.394 1159.43 501.576C1245.87 472.102 1310.1 423.115 1372.22 375.742L1372.86 375.256C1378.87 370.664 1385.1 365.918 1391.29 361.231C1456.63 311.789 1528.45 260.977 1624.33 230.632C1651.25 222.13 1679.62 215.887 1708.63 212.077C1735.62 208.532 1764.07 206.976 1793.19 207.452C1843.97 208.279 1898.37 215.143 1959.51 228.435C2023.76 242.354 2072.12 255.148 2116.29 269.921C2179.23 291.013 2240.19 317.664 2293.98 341.179C2413.74 393.815 2531.51 453.111 2644.03 517.415L2643.77 517.573C2531.27 453.276 2413.51 393.987 2293.76 341.355C2239.98 317.845 2179.03 291.197 2116.11 270.113C2071.95 255.344 2023.62 242.554 1959.39 228.639C1826.86 199.828 1720.45 200.522 1624.5 230.823C1528.68 261.149 1456.89 311.939 1391.57 361.363C1385.38 366.05 1379.16 370.798 1373.14 375.388L1372.51 375.875C1341.55 399.482 1309.54 423.893 1274.97 445.697C1236.13 470.2 1198.39 488.54 1159.61 501.763C1119.03 515.477 1074.83 522.896 1034.15 522.896Z" fill="#FFE492"/>
<path d="M2639.89 515.497C2528.85 450.786 2412.91 390.736 2295.29 337.014C2290.31 334.755 2285.32 332.486 2280.31 330.209C2229.37 307.047 2176.69 283.096 2120.36 264.438C2065.71 246.386 2010.32 235.349 1963.35 226.933C1833.69 203.559 1728.69 207.088 1632.88 238.035C1534.54 269.897 1458.33 322.797 1397.1 365.306C1393.43 367.857 1389.76 370.413 1386.09 372.971C1383.37 374.859 1380.66 376.748 1377.94 378.635C1343.08 402.863 1311.37 424.524 1276.33 444.29C1236.3 466.869 1197.72 483.406 1158.37 494.846C1121.5 505.569 1082.1 511.242 1045.46 511.244C1038.79 511.244 1032.21 511.057 1025.75 510.676C1002.15 509.287 980.306 505.384 960.82 499.075C939.558 492.191 921.066 482.413 905.849 470.011C904.49 468.899 903.134 467.75 901.822 466.594C878.537 446.102 864.918 422.195 851.75 399.076C848.914 394.097 845.979 388.946 843.011 383.947C826.12 355.428 806.642 330.531 783.471 307.83C780.587 305.006 777.601 302.177 774.596 299.419C719.684 249.032 643.926 206.566 555.517 176.61C452.335 141.73 342.821 125.689 247.146 131.439C181.739 135.447 114.856 158.751 84.4962 188.106C63.8128 208.105 60.1451 230.363 73.8815 252.473L73.5371 252.55C66.3446 240.973 63.8384 229.388 66.0881 218.115C68.1583 207.735 74.2479 197.6 84.1847 187.989C99.7715 172.916 124.456 159.444 155.571 149.032C184.348 139.401 216.855 133.074 247.109 131.221C297.266 128.205 350.973 131.108 406.74 139.848C457.186 147.755 507.306 160.058 555.7 176.417C644.165 206.39 719.962 248.881 774.908 299.298C777.916 302.059 780.902 304.889 783.786 307.714C806.972 330.427 826.457 355.338 843.359 383.87C846.327 388.871 849.262 394.02 852.098 399.002C865.259 422.107 878.871 445.998 902.126 466.466C903.438 467.62 904.79 468.767 906.146 469.876C971.596 523.224 1082.84 516.56 1158.21 494.646C1248.14 468.498 1316.95 420.68 1377.67 378.489C1380.38 376.601 1383.1 374.712 1385.81 372.825C1389.48 370.267 1393.15 367.712 1396.83 365.16C1431.78 340.897 1466.29 317.318 1504.24 295.591C1547.87 270.603 1589.9 251.714 1632.71 237.841C1659.35 229.236 1687.31 222.669 1715.82 218.326C1742.47 214.264 1770.48 212.01 1799.09 211.623C1849.54 210.94 1903.31 215.88 1963.46 226.722C2010.45 235.142 2065.86 246.184 2120.54 264.246C2176.89 282.911 2229.58 306.869 2280.54 330.036C2285.54 332.312 2290.54 334.581 2295.52 336.84C2413.14 390.566 2529.1 450.623 2640.15 515.341L2639.89 515.497Z" fill="#FFE492"/>
<path d="M2636.01 513.423C2524.33 447.061 2410.22 386.247 2296.82 332.672C2290.04 329.467 2283.1 326.163 2276.38 322.969C2228.31 300.092 2178.6 276.437 2124.61 258.762C2070.69 241.175 2014.84 231.939 1967.31 225.224C1840.81 207.18 1737.2 213.542 1641.26 245.246C1549.75 275.596 1478.05 321.234 1408.72 365.369L1401.1 370.214C1395.09 374.042 1388.87 377.998 1382.74 381.879C1313.34 425.761 1243.86 466.889 1157.13 487.925C1136.09 493.03 1114.48 496.567 1092.89 498.445C1069.72 500.459 1047.21 500.488 1025.98 498.529C1002.93 496.4 981.578 491.929 962.525 485.239C941.79 477.959 923.668 468.002 908.667 455.648C907.315 454.53 905.97 453.379 904.67 452.225C881.671 431.854 867.561 408.3 853.916 385.52C850.871 380.437 847.72 375.18 844.54 370.075C826.864 341.645 806.903 316.948 783.512 294.574C780.588 291.778 777.558 288.971 774.505 286.235C718.82 236.295 642.465 194.388 553.693 165.042C449.781 130.793 339.96 115.507 244.45 122.003C179.64 126.505 113.061 149.971 82.5474 179.071C61.5195 199.121 57.1264 221.465 69.8406 243.687L69.4925 243.76C62.8386 232.132 60.7831 220.503 63.3809 209.196C65.7772 198.773 72.1196 188.598 82.2323 178.956C97.9876 163.934 122.584 150.475 153.369 140.032C181.861 130.366 214.192 123.888 244.406 121.787C294.504 118.38 348.266 120.891 404.208 129.252C454.779 136.812 505.13 148.787 553.865 164.85C642.689 194.212 719.087 236.145 774.806 286.114C777.858 288.852 780.892 291.661 783.816 294.457C807.221 316.842 827.194 341.553 844.877 369.998C848.057 375.103 851.208 380.362 854.253 385.445C867.89 408.212 881.993 431.755 904.967 452.102C906.264 453.251 907.608 454.4 908.957 455.519C972.832 508.124 1078.96 506.647 1156.99 487.722C1243.65 466.704 1313.1 425.591 1382.47 381.729C1388.6 377.848 1394.82 373.893 1400.83 370.064L1408.45 365.219C1442.48 343.556 1477.67 321.153 1515.89 300.312C1559.18 276.71 1600.13 258.634 1641.08 245.052C1667.44 236.339 1695.01 229.449 1723 224.575C1749.32 219.992 1776.9 217.038 1804.97 215.794C1855.21 213.568 1908.33 216.584 1967.39 225.009C2014.94 231.727 2070.82 240.966 2124.77 258.568C2178.8 276.25 2228.52 299.912 2276.61 322.795C2283.32 325.989 2290.26 329.291 2297.05 332.498C2410.45 386.077 2524.58 446.896 2636.26 513.264L2636.01 513.423Z" fill="#FFE492"/>
<path d="M2632.12 511.35C2521.41 444.251 2409.11 382.675 2298.35 328.334C2290.03 324.251 2281.49 320.005 2273.24 315.899C2227.76 293.269 2180.73 269.869 2128.85 253.092C2075.19 235.807 2019.08 228.444 1971.27 223.522C1848.28 210.664 1746.07 219.861 1649.63 252.463C1565.47 281.034 1496.37 321.526 1429.54 360.683C1422.51 364.804 1415.24 369.064 1408.15 373.191C1399.83 378.039 1393.47 381.722 1387.54 385.129C1355.77 403.37 1317.94 424.373 1278.25 441.843C1236.18 460.354 1196.16 473.166 1155.89 481.011C1134.72 485.137 1113.2 487.739 1091.93 488.742C1069.09 489.821 1046.98 489.029 1026.21 486.385C1003.71 483.521 982.856 478.482 964.225 471.409C944.021 463.739 926.276 453.604 911.481 441.29C910.147 440.174 908.81 439.02 907.513 437.863C884.818 417.628 870.235 394.437 856.129 372.009C852.857 366.807 849.475 361.43 846.063 356.206C827.593 327.855 807.144 303.36 783.544 281.318C780.576 278.547 777.502 275.766 774.406 273.052C717.947 223.559 640.992 182.211 551.861 153.475C447.227 119.856 337.098 105.329 241.756 112.567C187.507 116.776 116.652 136.165 80.6491 169.991C59.2439 190.103 54.1069 212.548 65.7988 234.898L65.4507 234.964C59.3354 223.277 57.7379 211.597 60.6985 200.247C63.4318 189.771 70.038 179.552 80.3413 169.873C96.2651 154.912 120.77 141.475 151.214 131.01C179.42 121.315 211.557 114.689 241.712 112.349C291.752 108.55 345.573 110.669 401.683 118.652C452.375 125.863 502.961 137.513 552.033 153.281C641.215 182.033 718.215 223.405 774.707 272.927C777.803 275.641 780.88 278.425 783.848 281.199C807.459 303.252 827.919 327.76 846.401 356.124C849.815 361.35 853.197 366.728 856.469 371.93C870.565 394.346 885.144 417.524 907.813 437.737C909.11 438.893 910.444 440.044 911.778 441.158C964.917 485.392 1056.13 500.211 1155.78 480.798C1246.01 463.218 1319.62 423.816 1387.29 384.966C1393.22 381.559 1399.57 377.876 1407.89 373.028C1414.98 368.901 1422.25 364.641 1429.28 360.52C1462.18 341.243 1496.2 321.31 1532.49 302.645C1573.51 281.536 1611.78 265.057 1649.46 252.267C1675.57 243.439 1702.73 236.226 1730.19 230.828C1756.2 225.714 1783.35 222.062 1810.87 219.969C1860.98 216.16 1913.47 217.25 1971.34 223.299C2019.17 228.226 2075.31 235.592 2129.02 252.892C2180.93 269.68 2227.98 293.086 2273.47 315.723C2281.72 319.828 2290.26 324.075 2298.58 328.158C2409.35 382.505 2521.66 444.086 2632.38 511.19L2632.12 511.35Z" fill="#FFE492"/>
<path d="M2628.24 509.277C2518.48 441.436 2408.01 379.096 2299.87 323.994C2290.67 319.307 2281.23 314.387 2272.09 309.63C2228.56 286.969 2183.56 263.538 2133.09 247.417C2079.39 230.339 2023.16 224.891 1975.23 221.814C1857.81 214.071 1754.04 226.456 1658 259.675C1581.53 286.245 1515.98 321.79 1452.58 356.166C1439.78 363.109 1426.54 370.29 1413.67 377.134C1405.79 381.323 1398.82 385.002 1392.33 388.379C1362.17 404.065 1322.06 424.179 1279.19 440.617C1236.11 457.131 1195.37 468.083 1154.64 474.095C1110.21 480.653 1065.87 480.701 1026.42 474.238C1004.48 470.643 984.126 465.038 965.912 457.578C946.248 449.523 928.88 439.212 914.286 426.935C912.964 425.817 911.637 424.661 910.348 423.503C887.975 403.423 872.938 380.612 858.399 358.555C854.882 353.219 851.247 347.702 847.579 342.342C828.299 314.065 807.363 289.769 783.572 268.068C780.561 265.321 777.442 262.565 774.302 259.875C717.07 210.829 639.518 170.038 550.028 141.916C444.672 108.928 334.235 95.1589 239.058 103.139C174.557 108.664 110.154 131.866 78.805 160.871C56.9894 181.056 51.094 203.617 61.7563 226.117L61.4046 226.177C55.8316 214.419 54.6957 202.677 58.0263 191.279C61.1041 180.743 67.9925 170.471 78.4973 160.75C94.5896 145.86 118.999 132.454 149.088 121.98C176.997 112.266 208.933 105.494 239.007 102.919C288.988 98.7273 342.867 100.458 399.15 108.059C449.967 114.923 500.787 126.246 550.196 141.717C639.738 169.857 717.334 210.67 774.603 259.747C777.743 262.437 780.861 265.196 783.876 267.945C807.678 289.659 828.625 313.966 847.916 342.256C851.584 347.616 855.219 353.135 858.736 358.471C873.268 380.518 888.297 403.317 910.648 423.378C911.938 424.536 913.26 425.687 914.583 426.805C966.81 470.753 1056.52 488.351 1154.55 473.881C1243.92 460.689 1321.54 424.91 1392.09 388.214C1398.57 384.837 1405.55 381.16 1413.42 376.971C1426.29 370.127 1439.53 362.949 1452.33 356.006C1515.74 321.623 1581.31 286.069 1657.82 259.487C1683.7 250.535 1710.46 242.999 1737.37 237.087C1763.1 231.433 1789.81 227.081 1816.75 224.151C1866.84 218.703 1918.7 217.869 1975.27 221.598C2023.22 224.677 2079.5 230.128 2133.26 247.226C2183.76 263.357 2228.78 286.797 2272.33 309.467C2281.46 314.224 2290.91 319.142 2300.11 323.828C2408.25 378.935 2518.74 441.279 2628.5 509.125L2628.24 509.277Z" fill="#FFE492"/>
<path d="M2624.35 507.203C2515.58 438.613 2406.92 375.513 2301.4 319.654C2291.71 314.521 2281.73 309.086 2272.09 303.829C2230.15 280.977 2186.78 257.345 2137.33 241.744C2083.41 224.811 2027.13 221.305 1979.19 220.107C1866.21 217.078 1763.88 232.38 1666.38 266.888C1597.99 291.204 1537.04 321.979 1478.08 351.739C1457.81 361.973 1438.66 371.639 1419.19 381.076C1411.27 384.918 1404.05 388.369 1397.13 391.625C1352.45 412.615 1315.27 427.791 1280.13 439.383C1236.05 453.928 1194.6 463.019 1153.4 467.175C1137.42 468.787 1121.49 469.59 1105.86 469.59C1078.14 469.59 1051.33 467.072 1026.64 462.084C981.958 453.056 945.105 436.398 917.101 412.573C915.782 411.444 914.467 410.288 913.192 409.135C891.16 389.228 875.701 366.823 860.752 345.152C856.963 339.662 853.05 333.987 849.104 328.468C829 300.258 807.572 276.164 783.61 254.809C780.554 252.086 777.392 249.354 774.208 246.688C716.203 198.089 638.049 157.857 548.2 130.345C442.123 97.9916 331.381 84.9772 236.37 93.6989C171.601 99.7681 109.056 122.53 77.0358 151.689C54.7769 171.957 48.101 194.653 57.7228 217.324L57.3674 217.38C52.344 205.541 51.6771 193.728 55.3888 182.27C58.8256 171.664 66.0035 161.335 76.7317 151.568C92.9927 136.76 117.296 123.397 147.019 112.923C174.627 103.193 206.339 96.2899 236.315 93.481C286.237 88.8978 340.175 90.2362 396.627 97.4588C447.567 103.977 498.618 114.975 548.368 130.147C638.269 157.677 716.466 197.931 774.508 246.558C777.692 249.226 780.854 251.958 783.914 254.684C807.891 276.05 829.329 300.157 849.441 328.378C853.387 333.897 857.304 339.574 861.089 345.064C876.031 366.723 891.482 389.12 913.496 409.009C914.771 410.16 916.082 411.316 917.401 412.443C969.694 456.937 1055.69 476.806 1153.34 466.955C1246.29 457.578 1328.62 423.525 1396.9 391.449C1403.82 388.193 1411.04 384.744 1418.96 380.902C1438.43 371.465 1457.58 361.801 1477.85 351.567C1536.81 321.801 1597.78 291.021 1666.19 266.696C1691.88 257.605 1718.24 249.746 1744.56 243.336C1770.05 237.128 1796.32 232.076 1822.64 228.322C1872.84 221.166 1924.06 218.405 1979.21 219.885C2027.19 221.082 2083.51 224.593 2137.5 241.546C2186.99 257.158 2230.37 280.8 2272.33 303.661C2281.98 308.918 2291.95 314.353 2301.64 319.485C2407.16 375.348 2515.83 438.454 2624.61 507.048L2624.35 507.203Z" fill="#FFE492"/>
<path d="M2620.47 505.129C2511.15 434.809 2407.28 372.72 2302.93 315.313C2292.97 309.836 2283.17 304.243 2272.79 298.321C2232.22 275.172 2190.26 251.236 2141.58 236.071C2086.98 219.145 2028.23 217.736 1983.15 218.401C1875.31 219.783 1774.43 238.004 1674.75 274.104C1614.94 295.869 1559.72 322.005 1506.32 347.283C1478.25 360.569 1451.74 373.114 1424.71 385.021C1416.68 388.559 1409.23 391.781 1401.92 394.874C1356.63 414.017 1318.23 427.767 1281.07 438.149C1235.97 450.749 1193.8 457.98 1152.15 460.257C1130.75 461.426 1109.5 461.205 1088.99 459.603C1067.27 457.906 1046.36 454.65 1026.85 449.928C983.603 439.461 947.626 422.063 919.915 398.216C918.607 397.085 917.303 395.927 916.035 394.773C894.373 375.071 878.526 353.093 863.2 331.839C859.111 326.168 854.883 320.304 850.629 314.602C829.681 286.454 807.771 262.56 783.643 241.557C780.54 238.858 777.333 236.151 774.113 233.509C715.335 185.357 636.584 145.684 546.375 118.781C463.114 94.0534 377.252 81.1513 298.515 81.1513C276.256 81.1513 254.584 82.1816 233.68 84.2662C169.692 90.7734 107.539 113.617 75.3324 142.463C52.6008 162.826 45.1152 185.676 53.6853 208.541L53.3263 208.59C48.8525 196.658 48.6656 184.764 52.7693 173.24C56.5726 162.557 64.0618 152.16 75.0246 142.34C91.4541 127.624 115.644 114.317 144.985 103.854C172.682 93.9764 203.331 87.128 233.614 84.0505C283.478 79.0755 337.475 80.0242 394.099 86.866C445.161 93.0342 496.45 103.704 546.537 118.581C636.796 145.499 715.595 185.194 774.41 233.375C777.634 236.016 780.844 238.726 783.947 241.427C808.086 262.441 830.008 286.346 850.966 314.508C855.22 320.209 859.452 326.073 863.541 331.746C878.86 352.992 894.699 374.961 916.343 394.648C917.611 395.799 918.915 396.957 920.219 398.086C972.04 442.679 1056.56 465.256 1152.12 460.034C1248.82 454.749 1336.3 422.336 1401.72 394.689C1409.02 391.597 1416.47 388.374 1424.5 384.838C1451.53 372.936 1478.03 360.388 1506.1 347.105C1559.51 321.825 1614.73 295.682 1674.56 273.91C1725.89 255.324 1776.25 241.779 1828.53 232.498C1878.96 223.548 1929.54 218.863 1983.15 218.177C2013.74 217.725 2038.7 218.509 2061.69 220.64C2091.38 223.392 2117.57 228.373 2141.75 235.871C2190.48 251.049 2232.46 274.998 2273.05 298.158C2283.43 304.08 2293.23 309.671 2303.18 315.148C2407.54 372.557 2511.42 434.651 2620.74 504.975L2620.47 505.129Z" fill="#FFE492"/>
<path d="M2616.58 503.055C2508.27 431.965 2406.17 369.136 2304.45 310.972C2294.39 305.218 2284.47 299.289 2273.97 293.013C2234.61 269.499 2193.91 245.18 2145.82 230.396C2090.77 213.549 2032.09 214.223 1987.11 216.69C1885.35 222.081 1785.91 243.221 1683.12 281.313C1632.48 300.172 1584.26 321.754 1537.63 342.627C1500.76 359.126 1465.95 374.712 1430.23 388.957C1422.16 392.18 1414.24 395.262 1406.71 398.115C1361.34 415.294 1320.54 427.98 1282.01 436.9C1235.87 447.581 1192.98 452.957 1150.91 453.331C1129.5 453.52 1108.33 452.358 1088.01 449.873C1066.7 447.266 1046.2 443.192 1027.06 437.759C985.3 425.9 950.195 407.763 922.726 383.85C921.436 382.721 920.139 381.56 918.875 380.4C897.62 360.938 881.429 339.424 865.769 318.619C861.339 312.733 856.755 306.644 852.15 300.725C830.345 272.629 807.947 248.938 783.676 228.294C780.529 225.619 777.279 222.936 774.014 220.318C714.463 172.613 635.111 133.499 544.544 107.206C437.027 76.1232 325.666 64.6233 230.984 74.8244C167.824 81.7476 106.085 104.65 73.6987 133.169C50.4541 153.639 42.1368 176.661 49.6407 199.749L49.2816 199.791C45.3685 187.756 45.6689 175.769 50.1793 164.166C54.3673 153.395 62.1753 142.923 73.3946 133.043C89.9853 118.433 114.054 105.192 143 94.751C170.378 84.8758 200.778 77.9107 230.918 74.6065C280.727 69.2418 334.779 69.7965 391.571 76.2597C442.757 82.0844 494.277 92.4286 544.701 107.006C635.324 133.312 714.719 172.45 774.304 220.184C777.572 222.801 780.826 225.487 783.973 228.164C808.258 248.819 830.664 272.521 852.479 300.628C857.089 306.547 861.669 312.636 866.102 318.525C881.755 339.321 897.939 360.826 919.179 380.275C920.443 381.433 921.74 382.593 923.026 383.72C975.393 429.305 1056.32 453.952 1150.9 453.106C1227.64 452.424 1308.87 434.888 1406.52 397.923C1414.04 395.07 1421.95 391.99 1430.02 388.768C1465.73 374.525 1500.55 358.944 1537.4 342.445C1584.04 321.569 1632.27 299.983 1682.93 281.119C1734.75 261.913 1784.3 247.375 1834.42 236.67C1885.18 225.826 1935.12 219.215 1987.08 216.464C2032.1 213.992 2090.85 213.32 2145.99 230.193C2194.13 244.995 2234.85 269.325 2274.23 292.85C2284.73 299.126 2294.65 305.052 2304.71 310.805C2406.43 368.971 2508.53 431.804 2616.85 502.899L2616.58 503.055Z" fill="#FFE492"/>
<path d="M2612.7 500.982C2505.39 429.119 2405.07 365.546 2305.98 306.634C2295.93 300.653 2285.99 294.438 2275.48 287.858C2237.24 263.923 2197.69 239.173 2150.07 224.724C2094.5 207.938 2035.91 210.701 1991.08 214.983C1895.32 223.953 1800.13 247.323 1691.5 288.528C1650.75 304.052 1610.93 321.081 1572.43 337.549C1525.66 357.551 1481.49 376.445 1435.75 392.9C1427.51 395.868 1419.35 398.716 1411.51 401.362C1365.32 416.935 1323.26 428.153 1282.95 435.655C1260.37 439.857 1238.08 442.902 1216.69 444.705C1193.88 446.626 1171.33 447.201 1149.66 446.413C1105.7 444.812 1064.52 437.808 1027.28 425.595C987.061 412.404 952.832 393.53 925.546 369.491C924.263 368.353 922.977 367.191 921.721 366.037C900.92 346.861 884.439 325.858 868.504 305.548C863.679 299.4 858.692 293.043 853.676 286.857C830.992 258.807 808.107 235.317 783.712 215.04C780.52 212.387 777.223 209.728 773.918 207.137C713.593 159.876 633.644 121.322 542.718 95.6432C434.483 65.1963 322.818 54.4538 228.293 65.3923C127.082 77.2861 28.4575 128.677 45.6052 190.964L45.2424 190.999C40.9519 175.418 43.4654 160.068 52.7097 145.372C61.1516 131.95 75.0053 119.319 93.886 107.832C111.44 97.1511 132.501 87.9297 156.478 80.4231C179.283 73.2841 204.092 68.0097 228.22 65.1743C277.97 59.4178 332.08 59.5829 389.045 65.6674C440.356 71.1466 492.11 81.1649 542.872 95.4451C633.849 121.141 713.846 159.718 774.207 207.005C777.516 209.598 780.813 212.257 784.008 214.912C808.414 235.198 831.311 258.702 854.006 286.762C859.022 292.948 864.009 299.305 868.834 305.456C884.765 325.759 901.239 346.753 922.028 365.918C923.281 367.072 924.564 368.234 925.846 369.37C978.289 415.567 1057.78 442.849 1149.69 446.195C1227.49 449.024 1313.07 434.299 1411.33 401.173C1419.17 398.527 1427.32 395.68 1435.56 392.713C1481.29 376.262 1525.46 357.37 1572.22 337.371C1610.73 320.901 1650.55 303.869 1691.3 288.343C1799.98 247.12 1895.21 223.742 1991.02 214.765C2021.14 211.888 2046.08 210.967 2069.52 211.872C2099.47 213.028 2125.87 217.166 2150.23 224.526C2197.9 238.991 2237.47 263.756 2275.74 287.704C2286.25 294.282 2296.18 300.496 2306.24 306.475C2405.33 365.392 2505.66 428.967 2612.96 500.834L2612.7 500.982Z" fill="#FFE492"/>
<path d="M2608.81 498.908C2502.53 426.261 2403.97 361.948 2307.51 302.292C2297.53 296.119 2287.67 289.654 2277.23 282.806C2240.02 258.412 2201.54 233.187 2154.31 219.048C2097.53 202.122 2036.22 207.645 1995.04 213.272C1883.27 228.355 1783.11 263.423 1699.87 295.741C1669.96 307.403 1640.12 319.757 1611.25 331.704C1553.36 355.67 1498.68 378.307 1441.28 396.842C1432.83 399.57 1424.44 402.183 1416.31 404.611C1369.22 418.653 1325.9 428.401 1283.9 434.406C1236.28 441.215 1190.7 442.927 1148.43 439.493C1104.99 435.964 1064.31 427.194 1027.51 413.425C988.905 398.984 955.552 379.372 928.365 355.133C927.097 353.995 925.818 352.83 924.569 351.673C904.285 332.849 887.599 312.422 871.459 292.668C866.171 286.193 860.701 279.501 855.205 272.988C831.297 244.586 808.591 221.962 783.753 201.785C780.518 199.156 777.18 196.524 773.827 193.955C712.722 147.143 632.172 109.148 540.887 84.0765C431.933 54.2681 319.961 44.2805 225.598 55.9565C124.024 68.6913 27.4144 119.384 41.5648 182.177L41.2021 182.206C37.6919 166.627 40.7294 151.293 50.2266 136.629C58.9323 123.195 72.8665 110.55 91.6483 99.0501C109.162 88.3251 130.113 79.0354 153.922 71.4342C176.591 64.1962 201.353 58.7698 225.524 55.7386C275.22 49.5902 329.385 49.3657 386.518 55.0694C437.953 60.2029 489.942 69.8954 541.041 83.8762C632.381 108.961 712.975 146.978 774.109 193.818C777.462 196.389 780.803 199.024 784.042 201.653C808.895 221.839 831.609 244.476 855.527 272.888C861.023 279.402 866.494 286.097 871.781 292.571C887.917 312.319 904.6 332.739 924.869 351.554C926.119 352.712 927.394 353.874 928.661 355.012C981.511 402.13 1059.57 432.055 1148.47 439.275C1228.2 445.752 1315.75 434.346 1416.14 404.412C1424.27 401.987 1432.67 399.376 1441.1 396.648C1498.49 378.117 1553.16 355.485 1611.05 331.521C1639.91 319.575 1669.75 307.219 1699.67 295.554C1755.64 273.824 1802.2 257.77 1846.2 245.03C1897.98 230.035 1946.64 219.576 1994.95 213.056C2024.41 209.032 2050.08 207.209 2073.43 207.486C2103.51 207.843 2130.02 211.559 2154.47 218.85C2201.77 233.007 2240.26 258.247 2277.49 282.656C2287.94 289.502 2297.8 295.967 2307.77 302.136C2404.24 361.794 2502.8 426.111 2609.09 498.76L2608.81 498.908Z" fill="#FFE492"/>
<path d="M2604.93 496.832C2499.67 423.4 2402.88 358.345 2309.04 297.949C2299.2 291.616 2289.46 284.926 2279.15 277.842C2242.92 252.958 2205.47 227.226 2158.56 213.373C2101.16 196.487 2040.01 204.251 1999 211.561C1897.74 229.461 1807.41 263.542 1708.25 302.953C1690.36 310.087 1672.27 317.451 1654.78 324.574C1587.49 351.968 1517.92 380.293 1446.8 400.783C1438.16 403.275 1429.51 405.654 1421.1 407.856C1373.69 420.254 1327.85 428.764 1284.84 433.151C1236.12 438.122 1189.81 437.926 1147.18 432.572C1104.35 427.195 1064.16 416.657 1027.72 401.252C990.84 385.662 958.355 365.315 931.167 340.776C929.911 339.636 928.643 338.469 927.401 337.311C907.729 318.928 890.937 299.166 874.698 280.056C868.846 273.171 862.797 266.051 856.718 259.124C831.876 230.751 808.698 208.321 783.775 188.535C780.503 185.938 777.117 183.327 773.717 180.778C711.85 134.406 630.707 96.9703 539.055 72.5111C429.387 43.341 317.11 34.1107 222.901 46.5219C124.551 59.62 26.1575 108.534 37.5197 173.39L37.1569 173.412C34.4272 157.833 37.9887 142.516 47.7386 127.886C56.7045 114.436 70.723 101.78 89.4022 90.2671C123.866 69.0285 172.495 53.0049 222.82 46.304C272.457 39.766 326.681 39.1496 383.986 44.4725C435.546 49.2626 487.766 58.6272 539.201 72.3086C630.905 96.7809 712.096 134.241 774.003 180.635C777.407 183.186 780.792 185.797 784.068 188.397C809.002 208.193 832.191 230.632 857.041 259.016C863.119 265.946 869.172 273.065 875.024 279.951C891.259 299.056 908.047 318.813 927.709 337.188C928.947 338.346 930.215 339.51 931.472 340.651C985.864 389.745 1060.48 421.456 1147.25 432.355C1227.59 442.446 1319.67 434.135 1420.95 407.653C1429.35 405.452 1437.99 403.074 1446.63 400.585C1517.73 380.101 1587.29 351.781 1654.56 324.392C1672.06 317.268 1690.15 309.905 1708.04 302.77C1751.44 285.518 1801.95 265.73 1852.08 249.209C1904.52 231.928 1952.54 219.546 1998.89 211.352C2028.07 206.151 2053.74 203.452 2077.35 203.104C2107.12 202.664 2134.49 206.054 2158.71 213.177C2179.72 219.383 2200.87 228.644 2223.37 241.491C2243.23 252.835 2261.63 265.475 2279.42 277.697C2289.72 284.778 2299.46 291.468 2309.3 297.799C2403.15 358.198 2499.94 423.254 2605.2 496.689L2604.93 496.832Z" fill="#FFE492"/>
<path d="M2601.04 494.758C2496.82 420.533 2401.8 354.737 2310.57 293.61C2300.9 287.138 2291.33 280.245 2281.2 272.95C2245.92 247.549 2209.44 221.282 2162.8 207.702C2119.22 195.051 2066.93 195.755 2002.96 209.855C1913.51 229.458 1833.56 262.247 1748.9 296.965C1738.36 301.288 1727.47 305.757 1716.62 310.17C1712.37 311.903 1708.12 313.64 1703.88 315.374C1623.22 348.326 1539.81 382.401 1452.32 404.727C1443.47 406.986 1434.59 409.132 1425.9 411.105C1377.45 422.096 1330.31 429.092 1285.8 431.896C1235.96 435.035 1188.9 432.935 1145.94 425.653C1103.78 418.505 1064.09 406.2 1027.96 389.078C992.935 372.482 961.322 351.402 933.992 326.419C932.746 325.276 931.49 324.107 930.255 322.947C911.33 305.14 894.593 286.176 878.401 267.836C871.847 260.409 865.064 252.728 858.253 245.253C832.451 216.899 808.803 194.664 783.822 175.278C780.502 172.703 777.077 170.118 773.632 167.594C710.981 121.671 629.237 84.792 537.226 60.9448C426.847 32.4153 314.259 23.9401 220.207 37.0865C123.664 50.6931 25.4096 100.008 33.4814 164.604L33.115 164.622C31.1694 149.041 35.2512 133.741 45.2539 119.148C54.4836 105.683 68.5828 93.0118 87.163 81.4899C121.48 60.2073 169.941 43.9459 220.123 36.873C269.705 29.9432 323.984 28.9349 381.457 33.8792C433.142 38.3215 485.6 47.3602 537.373 60.7422C629.435 84.6049 711.23 121.504 773.907 167.45C777.351 169.975 780.785 172.564 784.104 175.14C809.096 194.536 832.759 216.778 858.568 245.143C865.383 252.618 872.162 260.301 878.72 267.728C894.904 286.064 911.642 305.024 930.559 322.824C931.794 323.984 933.047 325.151 934.293 326.293C989.865 377.092 1063.08 411.373 1146.04 425.435C1227.92 439.317 1322.04 434.423 1425.77 410.893C1434.45 408.921 1443.33 406.777 1452.17 404.52C1539.64 382.203 1623.03 348.135 1703.67 315.187C1707.92 313.451 1712.16 311.716 1716.41 309.983C1727.26 305.57 1738.15 301.101 1748.69 296.78C1833.37 262.056 1913.35 229.258 2002.83 209.646C2031.73 203.275 2057.39 199.702 2081.27 198.718C2111.16 197.488 2138.64 200.444 2162.96 207.502C2183.85 213.584 2204.73 222.887 2226.81 235.943C2246.28 247.463 2264.18 260.347 2281.48 272.807C2291.62 280.1 2301.18 286.99 2310.84 293.46C2402.08 354.589 2497.1 420.388 2601.32 494.615L2601.04 494.758Z" fill="#FFE492"/>
<path d="M2597.16 492.685C2502.03 423.519 2406.12 355.079 2312.09 289.269C2302.52 282.608 2293.03 275.451 2282.99 267.877C2250.33 243.235 2213.3 215.306 2167.05 202.03C2122.95 189.401 2070.58 191.402 2006.92 208.145C1931.23 227.988 1864.24 257.165 1793.33 288.054C1771.12 297.727 1748.15 307.732 1724.99 317.383C1684.56 334.265 1640.82 352.129 1594.97 368.399C1545.87 385.825 1501.01 398.996 1457.83 408.668C1448.76 410.7 1439.63 412.613 1430.68 414.35C1381.2 423.954 1332.78 429.42 1286.77 430.596C1235.83 431.895 1188.03 427.906 1144.69 418.731C1064.66 401.578 994.713 365.689 936.795 312.06C935.561 310.915 934.315 309.744 933.087 308.584C915.123 291.563 898.678 273.607 882.777 256.24C875.291 248.067 867.553 239.613 859.767 231.387C832.983 203.04 808.859 181 783.848 162.027C780.481 159.473 777.011 156.913 773.526 154.415C710.113 108.935 627.768 72.6168 535.398 49.3794C424.305 21.4883 311.412 13.7726 217.515 27.6521C120.385 42.0907 24.5928 90.7516 29.4403 155.819L29.0739 155.828C27.9124 140.242 32.5217 124.961 42.77 110.405C52.2672 96.9219 66.4469 84.2378 84.9209 72.7071C102.325 61.8434 122.953 52.3446 146.231 44.4726C168.831 36.8317 192.782 31.0994 217.423 27.4363C266.95 20.1169 321.287 18.7168 378.929 23.2802C430.739 27.3813 483.427 36.092 535.537 49.1747C627.962 72.4253 710.355 108.765 773.805 154.267C777.289 156.768 780.766 159.33 784.134 161.884C809.155 180.868 833.29 202.917 860.085 231.272C867.871 239.501 875.61 247.954 883.095 256.13C898.997 273.494 915.438 291.449 933.395 308.463C934.619 309.625 935.868 310.794 937.099 311.939C994.973 365.526 1064.86 401.386 1144.81 418.521C1227.17 435.956 1325.98 434.442 1430.57 414.139C1439.51 412.402 1448.64 410.491 1457.7 408.461C1554.25 386.837 1642.58 351.521 1724.78 317.2C1747.94 307.549 1770.9 297.546 1793.11 287.874C1864.04 256.978 1931.04 227.794 2006.77 207.943C2070.52 191.173 2123 189.172 2167.2 201.829C2187.92 207.775 2208.49 217.096 2230.09 230.319C2249.13 241.98 2266.49 255.076 2283.28 267.738C2293.32 275.313 2302.8 282.467 2312.37 289.124C2406.4 354.935 2502.31 423.375 2597.44 492.544L2597.16 492.685Z" fill="#FFE492"/>
<path d="M2593.27 490.61C2499.6 421.061 2405.51 351.859 2313.62 284.927C2304.35 278.194 2295.15 270.911 2285.4 263.202C2253.54 237.986 2217.43 209.404 2171.29 196.352C2126.67 183.745 2074.2 187.042 2010.87 206.43C1944.53 226.713 1883.57 255.352 1824.63 283.052C1795.07 296.94 1764.5 311.302 1733.36 324.591C1684.2 345.588 1642.84 361.605 1603.2 375C1554.31 391.517 1508.56 403.818 1463.35 412.606C1454.07 414.411 1444.69 416.088 1435.48 417.592C1387.46 425.422 1340.31 429.384 1295.21 429.387C1292.7 429.387 1290.21 429.373 1287.72 429.349C1235.57 428.838 1187.03 422.934 1143.45 411.804C1122.41 406.402 1101.8 399.545 1082.21 391.422C1063.8 383.788 1045.7 374.795 1028.42 364.696C997.343 346.526 968.287 324.609 939.605 297.697C938.374 296.54 937.146 295.379 935.926 294.215C919.284 278.337 903.54 261.738 888.316 245.686C879.526 236.421 870.439 226.838 861.287 217.511C833.107 188.775 809.235 167.571 783.877 148.765C780.466 146.236 776.952 143.7 773.423 141.226C709.241 96.197 626.298 60.4383 533.569 37.8106C421.765 10.5601 308.565 3.60166 214.821 18.2142C119.513 33.1129 23.8449 82.1436 25.4021 147.028L25.0357 147.031C24.3102 116.808 44.2462 88.0696 82.6854 63.923C100.06 53.0087 120.579 43.4417 143.677 35.4816C166.152 27.7373 190.056 21.8552 214.729 17.9985C264.197 10.2872 318.594 8.49746 376.404 12.68C428.338 16.4377 481.261 24.8227 533.705 37.6037C626.492 60.2468 709.482 96.0275 773.705 141.082C777.234 143.559 780.755 146.097 784.166 148.627C809.536 167.444 833.418 188.654 861.605 217.401C870.758 226.73 879.849 236.313 888.635 245.578C903.859 261.628 919.6 278.224 936.238 294.098C937.458 295.263 938.682 296.423 939.913 297.579C1000.86 354.765 1067.48 392.063 1143.59 411.602C1249 438.52 1360.45 429.602 1435.38 417.38C1444.59 415.877 1453.96 414.202 1463.24 412.397C1567.22 392.184 1662.1 354.759 1733.15 324.413C1764.29 311.128 1794.85 296.766 1824.4 282.88C1883.37 255.176 1944.33 226.528 2010.71 206.236C2039.04 197.56 2064.69 192.233 2089.1 189.952C2119.22 187.139 2146.92 189.226 2171.44 196.156C2192.1 202 2212.48 211.396 2233.72 224.877C2252.44 236.755 2269.35 250.133 2285.7 263.072C2295.44 270.779 2304.63 278.059 2313.9 284.789C2405.79 351.721 2499.88 420.922 2593.56 490.472L2593.27 490.61Z" fill="#FFE492"/>
<path d="M2589.39 488.537L2315.15 280.589C2306.19 273.798 2297.3 266.408 2287.88 258.586C2256.81 232.773 2221.58 203.518 2175.53 190.681C2131 178.27 2076.94 182.994 2014.83 204.724C1955.13 225.612 1900.68 253.391 1848.02 280.257C1813.7 297.768 1778.2 315.874 1741.74 331.81C1632.13 379.707 1536.34 407.996 1440.28 420.841C1400.43 426.169 1361.11 428.85 1322.99 428.85C1311.43 428.85 1299.99 428.603 1288.68 428.11C1235.3 425.786 1186.02 417.971 1142.21 404.886C1101.6 392.757 1064.46 375.634 1028.66 352.538C1000.07 334.095 972.669 312.108 942.423 283.343C926.458 268.162 911 252.39 896.051 237.137C862.217 202.619 827.233 166.927 783.921 135.513C717.485 87.3325 630.281 49.5485 531.737 26.245C419.226 -0.362668 305.718 -6.56607 212.128 8.77954C121.517 23.6364 23.1706 70.4856 21.3605 138.243L20.9941 138.239C21.8039 107.953 42.3627 79.2183 80.4466 55.1422C114.881 33.373 161.612 16.8321 212.033 8.56601C261.446 0.46504 315.9 -1.7165 373.876 2.08523C425.935 5.49732 479.092 13.5587 531.873 26.0403C580.633 37.571 626.943 52.7493 669.519 71.1548C712.45 89.7144 751.036 111.318 784.199 135.368C827.53 166.792 862.525 202.494 896.366 237.02C911.315 252.271 926.773 268.041 942.734 283.22C986.863 325.191 1049.44 376.924 1142.37 404.683C1248.95 436.517 1363.15 430.921 1440.19 420.621C1536.21 407.785 1631.95 379.507 1741.52 331.627C1777.97 315.698 1813.46 297.592 1847.78 280.085C1900.45 253.215 1954.92 225.43 2014.65 204.53C2076.86 182.763 2131.04 178.035 2175.69 190.479C2196.31 196.227 2216.49 205.703 2237.4 219.455C2255.8 231.561 2272.26 245.233 2288.18 258.454C2297.59 266.276 2306.49 273.661 2315.44 280.45L2589.68 488.399L2589.39 488.537Z" fill="#FFE492"/>
<path d="M2587.18 472.551C2517.35 414.651 2457.43 367.668 2398.62 324.695C2370.08 303.82 2340.92 283.272 2311.97 263.623C2303.21 257.679 2294.54 251.357 2285.35 244.663C2262.27 227.838 2238.4 210.441 2210.93 197.53C2196.18 190.584 2181.98 185.612 2167.52 182.327C2123.14 172.146 2071.07 178.878 2012.75 202.337C1982.57 214.46 1955.09 228.256 1932.19 240.152C1907.95 252.746 1884.03 266.634 1860.9 280.065C1827.66 299.371 1793.28 319.333 1756.33 336.477C1733.84 346.94 1711.05 356.289 1688.58 364.266C1643.62 380.226 1595.36 393.377 1545.15 403.354C1514.13 409.449 1482.95 414.057 1452.5 417.046C1426.26 419.613 1399.96 421.094 1374.35 421.449C1336.01 421.981 1298.66 419.95 1263.33 415.404C1225.77 410.57 1190.22 402.854 1157.68 392.468C1128.66 383.207 1101.25 371.546 1073.88 356.817C1022.88 329.393 982.21 297.682 952.473 273.12C937.865 260.997 923.601 248.634 909.806 236.678C870.084 202.247 832.564 169.727 785.614 140.759C747.321 117.288 703.631 97.0337 655.746 80.5544C618.948 67.89 578.926 57.5327 536.793 49.7685C526.758 47.9216 516.531 46.2001 506.408 44.657C462.821 38.0243 413.752 33.7053 360.569 31.8187C306.949 29.8727 260.559 31.5567 218.756 36.9721C195.123 40.0099 172.227 44.7759 150.693 51.1356C74.6723 73.5893 25.8565 111.283 20.1113 151.968L19.6533 151.944C21.1849 141.098 25.6807 130.415 33.0124 120.187C39.9777 110.473 49.5444 101.104 61.4452 92.3404C83.9313 75.7863 114.724 61.4511 150.492 50.8868C172.058 44.5161 194.991 39.7436 218.661 36.7013C260.508 31.2816 306.935 29.5953 360.598 31.5435C413.811 33.4301 462.905 37.7536 506.521 44.3906C516.656 45.936 526.886 47.6574 536.929 49.5066C579.095 57.2751 619.15 67.6413 655.977 80.3166C703.895 96.8069 747.621 117.079 785.932 140.565C832.913 169.551 870.439 202.08 910.176 236.52C923.967 248.476 938.231 260.836 952.836 272.957C982.558 297.508 1023.21 329.203 1074.18 356.61C1101.52 371.324 1128.9 382.974 1157.89 392.224C1221.58 412.549 1294.4 422.29 1374.33 421.174C1399.93 420.819 1426.2 419.338 1452.43 416.773C1482.86 413.784 1514.01 409.181 1545 403.089C1595.19 393.12 1643.41 379.977 1688.34 364.027C1710.8 356.055 1733.58 346.711 1756.04 336.256C1792.98 319.121 1827.35 299.164 1860.58 279.865C1883.71 266.432 1907.63 252.539 1931.89 239.941C1954.8 228.038 1982.29 214.238 2012.5 202.106C2038.46 191.661 2063.6 184.445 2087.22 180.656C2116.24 176.003 2143.31 176.478 2167.68 182.07C2182.19 185.365 2196.42 190.351 2211.21 197.312C2238.72 210.242 2262.6 227.651 2285.7 244.487C2294.89 251.179 2303.56 257.501 2312.31 263.44C2341.27 283.092 2370.43 303.641 2398.98 324.521C2457.79 367.498 2517.71 414.486 2587.55 472.39L2587.18 472.551Z" fill="#FFE492"/>
<path d="M2584.97 456.56C2520.22 397.681 2459.46 348.41 2399.19 305.935C2369.81 285.188 2339.39 265.243 2308.79 246.657C2300.67 241.726 2292.66 236.602 2284.17 231.177C2258.76 214.934 2232.48 198.137 2203.05 186.516C2188.19 180.623 2173.95 176.52 2159.51 173.971C2104.22 164.206 2048.06 182.706 2010.67 199.945C1984.19 212.123 1960 225.892 1935.49 240.106C1914.05 252.548 1893.87 265.932 1872.51 280.1C1840.8 301.132 1808.02 322.879 1770.92 341.139C1748.9 352.034 1725.92 361.453 1702.62 369.136C1659.22 383.449 1611.7 394.564 1557.33 403.118C1526.9 407.904 1495.75 411.314 1464.72 413.249C1438.54 414.862 1412.41 415.439 1387.04 414.957C1349.31 414.248 1312.43 411.061 1277.42 405.485C1240.65 399.627 1205.56 391.068 1173.14 380.046C1144.73 370.391 1117.3 358.411 1089.28 343.424C1038.39 316.244 994.804 286.112 962.517 262.897C950.565 254.303 938.803 245.656 927.426 237.291C882.121 203.98 839.328 172.514 787.307 146.005C748.428 126.193 704.778 109.441 657.578 96.2149C621.865 86.2076 584.012 78.7098 541.861 73.2923C532.133 72.0441 522.237 70.9192 512.45 69.9484C469.464 65.7064 423.586 64.1016 368.08 62.4418C328.069 61.1848 275.692 60.3571 225.374 65.1605C201.543 67.3926 178.507 71.2692 156.9 76.6779C80.828 95.7262 29.224 129.002 18.8548 165.694L18.3125 165.639C21.0605 155.909 26.6298 146.366 34.8555 137.272C42.6965 128.608 52.9998 120.3 65.4758 112.573C89.1857 97.8945 120.726 85.3755 156.688 76.3719C178.335 70.9522 201.415 67.069 225.286 64.8325C275.651 60.0225 328.069 60.8524 368.106 62.1094C423.63 63.7692 469.522 65.374 512.538 69.6182C522.332 70.5912 532.236 71.7161 541.975 72.9643C584.166 78.3884 622.056 85.8928 657.809 95.9111C705.057 109.15 748.743 125.916 787.662 145.747C839.72 172.276 882.531 203.751 927.851 237.075C939.224 245.438 950.986 254.085 962.938 262.677C995.218 285.883 1038.79 316.004 1089.65 343.171C1117.63 358.142 1145.03 370.109 1173.41 379.753C1237.16 401.425 1309.05 413.156 1387.06 414.623C1412.4 415.102 1438.51 414.528 1464.66 412.914C1495.66 410.981 1526.79 407.576 1557.19 402.792C1611.51 394.247 1659 383.141 1702.36 368.841C1725.63 361.167 1748.58 351.761 1770.57 340.877C1807.64 322.633 1840.41 300.894 1872.11 279.873C1893.48 265.699 1913.66 252.313 1935.12 239.864C1959.63 225.641 1983.83 211.867 2010.34 199.676C2034.58 188.5 2058.48 180.461 2081.39 175.776C2109.17 170.097 2135.51 169.381 2159.67 173.647C2174.16 176.208 2188.45 180.324 2203.36 186.235C2232.84 197.878 2259.14 214.689 2284.58 230.946C2293.06 236.368 2301.08 241.491 2309.19 246.42C2339.8 265.012 2370.22 284.963 2399.62 305.717C2459.89 348.203 2520.68 397.483 2585.43 456.376L2584.97 456.56Z" fill="#FFE492"/>
<path d="M2582.76 440.57C2522.16 379.912 2462.31 329.736 2399.77 287.178C2369.53 266.558 2337.85 247.219 2305.62 229.694C2298.73 225.947 2291.63 221.972 2284.77 218.128C2256.45 202.248 2227.16 185.828 2195.18 175.506C2180.17 170.627 2165.88 167.391 2151.51 165.615C2096.33 158.793 2043.34 179.217 2008.59 197.55C1985.05 209.926 1963.52 223.953 1942.7 237.52L1938.8 240.06C1919.9 252.368 1902.17 265.867 1883.4 280.16C1853.5 302.92 1822.59 326.452 1785.51 345.802C1763.93 357.143 1740.77 366.633 1716.67 374.008C1674.64 386.866 1627.88 396.041 1569.5 402.883C1539.31 406.42 1508.17 408.631 1476.93 409.45C1450.81 410.108 1424.84 409.778 1399.73 408.463C1323.7 404.503 1252.66 390.762 1188.59 367.624C1160.89 357.621 1133.44 345.326 1104.68 330.031C1056.01 304.203 1012.72 277.655 972.563 252.676C967.177 249.328 961.85 246.002 956.563 242.702C901.709 208.473 849.899 176.142 789.011 151.258C749.26 135.012 705.654 121.764 659.41 111.88C625.46 104.624 588.665 99.6976 546.932 96.8183C537.527 96.1733 527.96 95.6428 518.496 95.2421C494.687 94.2515 469.434 94.0908 442.698 93.9213C421.223 93.7848 399.019 93.6439 375.588 93.0694C330.334 91.8653 279.045 90.5026 231.984 93.3556C207.702 94.8283 184.527 97.8133 163.1 102.229C87.0571 117.903 32.661 146.765 17.5909 179.435L16.9717 179.331C20.9435 170.718 27.5827 162.315 36.7024 154.357C45.4228 146.747 56.4588 139.496 69.5028 132.806C94.4511 120.012 126.746 109.313 162.888 101.864C184.363 97.4369 207.585 94.4452 231.914 92.9703C279.023 90.1152 330.337 91.48 375.61 92.6842C399.027 93.2565 421.231 93.3996 442.698 93.5361C469.445 93.7056 494.705 93.8663 518.536 94.8591C528.008 95.2619 537.585 95.7925 546.998 96.4375C588.783 99.319 625.621 104.252 659.619 111.519C705.918 121.414 749.571 134.677 789.366 150.941C850.31 175.847 902.145 208.193 957.021 242.438C962.308 245.737 967.639 249.061 973.021 252.412C1013.18 277.386 1056.45 303.928 1105.1 329.747C1133.83 345.025 1161.25 357.308 1188.92 367.298C1252.91 390.408 1323.86 404.129 1399.78 408.085C1424.87 409.397 1450.81 409.727 1476.9 409.069C1508.1 408.25 1539.22 406.042 1569.37 402.509C1627.69 395.674 1674.41 386.509 1716.37 373.669C1740.43 366.31 1763.54 356.837 1785.08 345.516C1822.12 326.19 1853.01 302.671 1882.89 279.924C1901.67 265.624 1919.41 252.119 1938.33 239.803L1942.22 237.262C1963.05 223.689 1984.59 209.653 2008.17 197.264C2043.02 178.871 2096.2 158.388 2151.63 165.241C2166.07 167.026 2180.41 170.273 2195.48 175.171C2227.53 185.515 2256.85 201.953 2285.21 217.851C2292.06 221.694 2299.16 225.67 2306.04 229.414C2338.29 246.948 2369.98 266.298 2400.24 286.929C2462.81 329.505 2522.68 379.698 2583.3 440.376L2582.76 440.57Z" fill="#FFE492"/>
<path d="M2580.55 424.577C2524.91 363.003 2464.28 310.463 2400.34 268.422C2369.26 247.932 2336.32 229.196 2302.45 212.735C2297.56 210.357 2292.55 207.889 2287.7 205.503C2255.69 189.739 2222.59 173.436 2187.33 164.499C2172.19 160.622 2157.86 158.256 2143.52 157.261C2088.5 153.448 2038.65 175.763 2006.52 195.155C1986.57 207.134 1968.57 220.457 1951.15 233.341C1948.14 235.571 1945.13 237.797 1942.11 240.014C1925.55 252.192 1910.06 265.796 1893.66 280.197C1865.79 304.681 1836.96 329.996 1800.1 350.469C1778.45 362.49 1755.76 371.784 1730.71 378.886C1678.32 393.738 1625.97 399.235 1581.67 402.656C1551.7 404.967 1520.57 405.98 1489.14 405.659C1463.1 405.361 1437.29 404.122 1412.42 401.978C1338.67 395.636 1268.57 379.901 1204.05 355.208C1177.2 344.937 1149.74 332.323 1120.08 316.647C1090.13 300.85 1062.22 285.65 1035.22 270.949C1016.88 260.957 999.545 251.52 982.621 242.466C918.647 208.239 860.049 178.147 790.729 156.517C750.124 143.848 706.563 134.1 661.253 127.547C628.779 122.849 594.066 120.562 552.014 120.344C542.942 120.304 533.701 120.368 524.552 120.535C510.655 120.806 496.277 121.372 481.06 121.973C451.858 123.124 418.754 124.43 383.095 123.699C369.517 123.419 355.663 123.025 342.264 122.642C307.8 121.658 272.164 120.641 238.59 121.55C213.935 122.22 190.617 124.315 169.292 127.78C93.3775 140.119 36.1931 164.569 16.3194 193.184L15.6416 193.015C20.8445 185.522 28.5536 178.261 38.5527 171.435C48.1562 164.879 59.925 158.687 73.5258 153.032C99.7346 142.135 132.78 133.257 169.095 127.355C190.47 123.882 213.84 121.779 238.55 121.11C272.16 120.199 307.811 121.218 342.293 122.202C355.689 122.585 369.542 122.979 383.117 123.259C418.743 123.989 451.822 122.686 481.009 121.535C496.233 120.934 510.614 120.368 524.527 120.097C533.687 119.93 542.935 119.866 552.018 119.906C594.129 120.122 628.893 122.415 661.422 127.12C706.786 133.682 750.406 143.441 791.062 156.127C822.375 165.897 854.106 178.275 888.067 193.966C918.472 208.013 948.047 223.383 983.105 242.138C1000.03 251.194 1017.36 260.632 1035.71 270.623C1062.7 285.322 1090.61 300.522 1120.56 316.317C1150.18 331.977 1177.62 344.578 1204.43 354.838C1268.86 379.498 1338.87 395.211 1412.51 401.544C1437.36 403.686 1463.14 404.923 1489.14 405.221C1520.54 405.542 1551.64 404.532 1581.56 402.22C1625.81 398.806 1678.1 393.316 1730.39 378.49C1755.37 371.408 1778.01 362.138 1799.6 350.147C1836.39 329.71 1865.2 304.414 1893.05 279.951C1909.46 265.541 1924.95 251.93 1941.54 239.739C1944.55 237.522 1947.56 235.296 1950.57 233.068C1968 220.175 1986.02 206.844 2005.99 194.849C2026.9 182.233 2048.34 172.527 2069.73 166.002C2095.07 158.273 2119.92 155.187 2143.59 156.829C2158 157.829 2172.4 160.206 2187.6 164.098C2222.95 173.06 2256.1 189.383 2288.15 205.166C2293 207.553 2298.01 210.02 2302.89 212.396C2336.79 228.87 2369.75 247.624 2400.86 268.129C2434.81 290.453 2468.06 315.888 2499.68 343.726C2527.63 368.33 2555.05 395.464 2581.17 424.37L2580.55 424.577Z" fill="#FFE492"/>
<path d="M2578.33 408.58C2526.84 345.24 2467.15 291.774 2400.92 249.664C2368.98 229.304 2334.79 211.174 2299.29 195.773C2297.6 195.04 2295.91 194.307 2294.22 193.572C2257.3 177.537 2219.13 160.956 2179.49 153.492C2164.13 150.599 2149.75 149.1 2135.55 148.906C2080.75 148.162 2034.02 172.342 2004.47 192.755C1987.08 204.697 1971.64 217.786 1956.71 230.444C1953.02 233.574 1949.2 236.81 1945.44 239.963C1931.09 251.969 1917.75 265.619 1903.62 280.074C1877.94 306.364 1851.38 333.549 1814.71 355.131C1793.49 367.617 1770.61 376.981 1744.76 383.762C1693.84 397.117 1642.13 400.624 1593.84 402.425C1564.06 403.534 1532.94 403.345 1501.34 401.863C1475.4 400.608 1449.75 398.462 1425.11 395.486C1353.87 386.901 1284.69 369.171 1219.51 342.788C1193.4 332.224 1166.71 319.663 1135.5 303.258C1076.19 272.166 1032.15 250.267 992.701 232.254C914.243 196.427 854.362 175.349 792.48 161.775C751.051 152.688 707.534 146.443 663.129 143.211C632.322 140.97 599.628 141.171 557.125 143.867C548.416 144.426 539.505 145.085 530.638 145.826C522.262 146.538 513.754 147.352 504.745 148.213C471.479 151.394 433.773 154.999 390.618 154.326C367.871 153.971 344.638 153.001 322.17 152.063C296.635 150.997 270.233 149.895 245.2 149.745C220.101 149.595 196.641 150.802 175.488 153.333C99.8262 162.383 39.8461 182.426 15.0443 206.947L14.3408 206.689C20.7822 200.319 29.5612 194.201 40.4324 188.506C50.9261 183.007 63.4204 177.876 77.5709 173.251C105.058 164.265 138.863 157.207 175.327 152.847C196.538 150.311 220.05 149.1 245.207 149.25C270.262 149.399 296.679 150.502 322.225 151.57C344.685 152.508 367.908 153.478 390.636 153.833C433.714 154.504 471.38 150.903 504.609 147.726C513.623 146.863 522.138 146.051 530.517 145.338C539.395 144.596 548.314 143.938 557.03 143.376C599.599 140.678 632.348 140.475 663.221 142.723C707.688 145.959 751.267 152.213 792.755 161.313C854.721 174.904 914.664 196.004 993.192 231.862C1032.65 249.882 1076.71 271.788 1136.03 302.888C1167.22 319.28 1193.89 331.827 1219.96 342.381C1285.06 368.726 1354.13 386.432 1425.26 395.004C1449.87 397.976 1475.49 400.118 1501.4 401.372C1532.96 402.852 1564.04 403.041 1593.78 401.934C1642 400.135 1693.62 396.637 1744.43 383.312C1770.18 376.559 1792.98 367.225 1814.12 354.783C1850.71 333.247 1877.25 306.091 1902.91 279.829C1917.04 265.366 1930.39 251.705 1944.76 239.681C1948.53 236.531 1952.35 233.295 1956.03 230.165C1970.97 217.496 1986.42 204.398 2003.84 192.436C2023.12 179.113 2043.34 168.575 2063.93 161.113C2088.05 152.371 2112.15 148.103 2135.56 148.417C2149.85 148.611 2164.29 150.119 2179.73 153.025C2219.5 160.516 2257.73 177.119 2294.7 193.178C2296.39 193.913 2298.08 194.648 2299.77 195.379C2335.31 210.797 2369.54 228.949 2401.51 249.332C2467.8 291.479 2527.54 344.987 2579.07 408.37L2578.33 408.58Z" fill="#FFE492"/>
<path d="M1612.07 402.196C1610.01 402.196 1607.99 402.194 1605.99 402.187C1576.37 402.112 1545.26 400.725 1513.54 398.062C1487.69 395.85 1462.2 392.796 1437.79 388.99C1402.91 383.562 1367.9 375.76 1333.73 365.803C1300.74 356.188 1267.51 344.265 1234.97 330.364C1203.08 316.744 1173.29 301.568 1150.91 289.868C1098.53 262.567 1048.69 239.747 1002.78 222.042C928.419 193.367 862.155 175.886 794.235 167.03C753.261 161.688 709.3 158.87 666.973 158.87C666.317 158.87 665.665 158.87 665.009 158.872C628.647 158.947 594.125 163.006 562.24 167.382C553.941 168.529 545.357 169.782 536.724 171.109C531.994 171.845 527.256 172.602 522.244 173.403C486.89 179.063 446.816 185.475 398.133 184.949C368.483 184.628 338.2 182.783 308.914 180.998C290.004 179.844 270.452 178.653 251.802 177.934C226.165 176.945 202.573 177.262 181.673 178.88C106.414 184.7 43.6383 200.339 13.7435 220.715L13.0547 220.351C28.3886 209.902 51.4537 200.854 81.6086 193.457C110.408 186.396 144.971 181.165 181.556 178.336C202.51 176.716 226.165 176.395 251.861 177.388C270.529 178.107 290.091 179.301 309.009 180.454C338.277 182.239 368.542 184.084 398.151 184.403C446.71 184.929 486.714 178.526 522.009 172.877C527.025 172.074 531.763 171.316 536.497 170.581C545.137 169.254 553.729 167.999 562.035 166.852C593.975 162.469 628.556 158.403 665.005 158.326C708.006 158.236 752.755 161.062 794.43 166.498C829.483 171.07 863.467 177.799 898.316 187.071C931.878 196.002 966.21 207.291 1003.27 221.584C1049.21 239.303 1099.09 262.14 1151.5 289.458C1173.87 301.152 1203.63 316.317 1235.49 329.921C1301.53 358.129 1369.67 377.825 1438.02 388.464C1462.4 392.266 1487.85 395.315 1513.67 397.525C1545.35 400.184 1576.41 401.571 1605.99 401.643C1652.28 401.758 1706.03 400.82 1758.46 388.129C1784.99 381.706 1807.95 372.313 1828.64 359.415C1864.98 336.763 1889.06 307.69 1912.36 279.572C1924.35 265.109 1935.67 251.448 1947.97 239.622C1951.92 235.833 1955.9 231.93 1959.74 228.155C1972.74 215.4 1986.18 202.214 2001.67 190.026C2019.36 176.003 2038.35 164.629 2058.11 156.219C2081.01 146.47 2104.36 141.015 2127.5 140.006C2141.79 139.384 2156.29 140.02 2171.83 141.952C2213.38 147.117 2254.57 162.121 2296.62 178.361C2333.28 192.52 2369.77 210.56 2402.14 230.533C2438.1 252.654 2471.89 278.606 2502.56 307.666C2529.88 333.556 2554.91 362.054 2576.95 392.371L2576.11 392.591C2528.78 327.484 2470.03 273.089 2401.49 230.918C2369.16 210.974 2332.73 192.96 2296.13 178.825C2254.15 162.614 2213.04 147.639 2171.64 142.492C2156.19 140.57 2141.77 139.938 2127.57 140.557C2085.04 142.413 2040.59 160.098 2002.4 190.36C1986.94 202.527 1973.51 215.702 1960.52 228.443C1956.68 232.221 1952.69 236.126 1948.75 239.915C1936.47 251.718 1925.15 265.369 1913.18 279.819C1901.75 293.614 1889.93 307.881 1876.37 321.596C1860.99 337.144 1845.6 349.639 1829.3 359.798C1808.52 372.753 1785.46 382.188 1758.8 388.642C1735.29 394.335 1710.02 398.097 1681.55 400.149C1657.43 401.877 1633.22 402.196 1612.07 402.196Z" fill="#FFE492"/>
<path d="M1670.82 403.299C1652.14 403.299 1634.19 402.63 1618.14 401.952C1588.62 400.706 1557.52 398.119 1525.73 394.262C1499.98 391.095 1474.66 387.137 1450.45 382.494C1384.18 369.808 1318.74 348.69 1250.41 317.939C1220.61 304.531 1192.52 290.103 1166.31 276.477C1114.56 249.654 1062.93 227.904 1012.85 211.83C939.206 188.19 870.301 175.622 796.002 172.281C753.667 170.376 709.025 171.154 666.896 174.526C631.633 177.348 598.39 184.159 567.356 190.891C559.591 192.584 551.333 194.433 542.814 196.385C540.685 196.876 538.538 197.376 536.362 197.88C500.619 206.184 460.176 215.579 408.271 215.579C407.395 215.579 406.523 215.577 405.64 215.57C370.524 215.357 334.672 212.345 299.995 209.431C286.248 208.275 272.032 207.082 258.391 206.115C231.746 204.231 208.67 203.674 187.84 204.418C112.079 207.126 48.1306 218.08 12.399 234.478L11.7871 233.995C29.4514 225.89 54.9933 218.852 85.6428 213.644C115.79 208.521 151.108 205.123 187.777 203.813C208.666 203.066 231.801 203.623 258.504 205.512C272.16 206.479 286.38 207.674 300.131 208.827C334.774 211.738 370.594 214.747 405.644 214.96C458.629 215.286 499.732 205.735 535.992 197.31C538.164 196.806 540.315 196.306 542.444 195.813C550.97 193.858 559.232 192.009 567.004 190.316C598.089 183.571 631.395 176.752 666.753 173.921C708.948 170.544 753.664 169.764 796.067 171.671C832.887 173.326 867.992 177.236 903.387 183.62C939.84 190.195 975.799 199.245 1013.32 211.291C1063.46 227.387 1115.15 249.163 1166.95 276.013C1193.16 289.634 1221.23 304.053 1251 317.449C1319.24 348.157 1384.58 369.244 1450.75 381.911C1474.92 386.545 1500.21 390.498 1525.92 393.661C1557.67 397.514 1588.72 400.098 1618.2 401.34C1667.8 403.431 1720.57 404.505 1772.48 392.933C1799.8 386.842 1822.91 377.389 1843.15 364.034C1879.19 340.244 1901.63 307.793 1921.42 279.163C1931.38 264.757 1940.79 251.151 1951.17 239.552C1954.92 235.367 1958.69 231.041 1962.33 226.859C1973.74 213.772 1985.53 200.24 1999.48 187.602C2015.63 172.879 2033.39 160.668 2052.28 151.308C2073.97 140.559 2096.56 133.92 2119.43 131.58C2133.73 130.116 2148.28 129.883 2163.92 130.86C2207.61 133.596 2252 147.117 2293.46 161.322C2331.75 174.438 2369.54 191.864 2402.77 211.716C2439.73 233.733 2473.78 259.945 2503.98 289.617C2530.98 316.152 2554.82 345.333 2574.83 376.354L2573.89 376.572C2531.36 310.633 2471.94 253.775 2402.06 212.143C2368.9 192.328 2331.18 174.935 2292.97 161.846C2251.6 147.674 2207.33 134.186 2163.82 131.461C2148.27 130.488 2133.81 130.721 2119.61 132.174C2077.38 136.495 2035.02 156.297 2000.33 187.932C1986.4 200.544 1974.62 214.062 1963.23 227.136C1959.59 231.321 1955.82 235.646 1952.07 239.836C1941.71 251.408 1932.31 265.001 1922.36 279.392C1902.53 308.066 1880.06 340.569 1843.89 364.439C1823.55 377.867 1800.3 387.372 1772.83 393.499C1749 398.813 1723.28 401.89 1694.21 402.901C1686.36 403.187 1678.53 403.299 1670.82 403.299Z" fill="#FFE492"/>
<path d="M1707.7 405.683C1707.43 405.683 1707.17 405.683 1706.9 405.683C1680.5 405.643 1654.58 403.702 1630.28 401.716C1600.81 399.308 1569.73 395.519 1537.92 390.461C1512.29 386.342 1487.13 381.475 1463.13 375.998C1399.5 361.497 1336.82 339.103 1265.86 305.517C1240.31 293.425 1215.17 280.404 1190.84 267.815C1187.8 266.238 1184.76 264.664 1181.71 263.091C1129.69 236.274 1076.28 215.592 1022.95 201.622C949.92 182.495 876.269 174.614 797.786 177.531C754.752 179.131 710.15 183.505 668.801 190.18C636.177 195.447 607.106 203.898 572.489 214.399C565.472 216.536 557.979 218.843 548.914 221.661L548.409 221.82C530.92 227.292 511.098 233.493 488.865 238.209C463.33 243.624 438.558 246.23 413.155 246.2C373.543 246.14 333.118 241.711 294.026 237.425C284.449 236.375 274.541 235.29 264.978 234.308C237.553 231.497 214.338 230.077 194.006 229.969C119.143 229.573 52.4501 236.238 11.032 248.253L10.5557 247.659C30.8434 241.773 58.2099 236.996 89.6949 233.843C121.238 230.684 157.314 229.117 194.017 229.311C214.407 229.419 237.681 230.841 265.165 233.658C274.735 234.64 284.643 235.726 294.224 236.776C333.268 241.055 373.642 245.48 413.159 245.539C413.334 245.539 413.514 245.539 413.69 245.539C470.215 245.539 513.278 232.067 547.903 221.234L548.412 221.076C557.481 218.256 564.974 215.949 571.994 213.811C606.67 203.293 635.792 194.827 668.519 189.543C709.937 182.856 754.612 178.475 797.72 176.872C836.126 175.446 872.352 176.533 908.476 180.201C947.402 184.152 984.992 190.961 1023.39 201.019C1076.82 215.015 1130.33 235.73 1182.43 262.591C1185.48 264.165 1188.52 265.741 1191.56 267.317C1215.87 279.902 1241.01 292.919 1266.54 305.002C1337.4 338.546 1399.99 360.91 1463.52 375.386C1487.48 380.856 1512.61 385.714 1538.2 389.829C1569.97 394.881 1601 398.663 1630.43 401.067C1683.15 405.377 1734.75 408.366 1786.53 397.765C1814.62 392.01 1837.9 382.498 1857.67 368.683C1893.39 343.726 1912.91 309.145 1930.13 278.632C1938.19 264.347 1945.8 250.853 1954.39 239.514C1957.7 235.151 1961.01 230.638 1964.22 226.273C1974.24 212.625 1984.61 198.514 1997.32 185.209C2011.95 169.78 2028.49 156.73 2046.46 146.423C2066.96 134.677 2088.79 126.858 2111.37 123.186C2125.37 120.91 2139.66 119.8 2155.01 119.8C2155.34 119.8 2155.68 119.8 2156.01 119.802C2203.74 119.952 2252.86 132.98 2290.32 144.312C2330.22 156.387 2369.33 173.196 2403.41 192.925C2441.37 214.841 2475.7 241.31 2505.42 271.599C2532.09 298.779 2554.74 328.645 2572.72 360.37L2571.68 360.584C2544.92 313.378 2493.86 246.056 2402.65 193.402C2368.65 173.718 2329.63 156.948 2289.82 144.902C2252.47 133.601 2203.51 120.61 2156.01 120.463C2140.37 120.408 2125.87 121.513 2111.66 123.824C2069.83 130.629 2029.56 152.545 1998.27 185.537C1985.59 198.811 1975.24 212.906 1965.22 226.539C1962.02 230.907 1958.7 235.422 1955.39 239.787C1946.83 251.098 1939.22 264.574 1931.17 278.843C1913.92 309.411 1894.37 344.058 1858.51 369.112C1838.6 383.02 1815.17 392.596 1786.88 398.388C1762.91 403.294 1737 405.683 1707.7 405.683Z" fill="#FFE492"/>
<path d="M1737.03 408.782C1731.34 408.782 1725.53 408.672 1719.58 408.452C1693.53 407.49 1668.22 404.604 1642.43 401.478C1612.53 397.854 1582.33 393.007 1550.11 386.658C1524.61 381.591 1499.61 375.819 1475.8 369.499C1415.39 353.491 1355.41 329.925 1281.32 293.092C1262.92 283.946 1244.53 274.352 1226.74 265.074C1217.05 260.024 1207.04 254.8 1197.12 249.699C1144.49 222.702 1089.28 203.092 1033.05 191.412C958.746 175.978 882.381 173.152 799.581 182.772C755.837 187.855 711.275 195.826 670.718 205.822C638.137 213.853 609.756 225.13 579.707 237.07L577.63 237.896C572.936 239.767 568.191 241.664 563.387 243.584C560.621 244.691 557.836 245.805 555.026 246.928C537.505 253.966 518.58 261.307 496.878 266.958C471.681 273.518 446.758 276.745 420.677 276.824C377.259 276.952 332.972 270.89 290.147 265.021C284.035 264.182 277.711 263.317 271.574 262.496C242.8 258.643 220.116 256.427 200.177 255.515C126.596 252.154 57.1551 254.522 9.65473 262.016L9.35059 261.325C56.9756 253.811 126.559 251.434 200.268 254.802C220.263 255.716 243.005 257.939 271.834 261.798C277.975 262.621 284.299 263.486 290.414 264.325C332.715 270.121 376.442 276.111 419.285 276.111C419.747 276.111 420.208 276.111 420.674 276.109C476.088 275.942 515.535 261.928 554.37 246.333C557.181 245.211 559.965 244.097 562.732 242.99C567.535 241.068 572.276 239.172 576.974 237.299L579.051 236.474C609.151 224.514 637.58 213.216 670.267 205.159C710.897 195.143 755.536 187.159 799.358 182.067C882.366 172.423 958.937 175.259 1033.44 190.734C1089.82 202.445 1145.15 222.099 1197.9 249.156C1207.82 254.258 1217.83 259.48 1227.52 264.532C1245.3 273.809 1263.69 283.4 1282.08 292.54C1356.08 329.331 1415.98 352.863 1476.28 368.845C1500.06 375.154 1525.02 380.92 1550.48 385.978C1582.65 392.318 1612.81 397.159 1642.67 400.776C1687.99 406.268 1744.4 413.105 1800.57 402.574C1829.45 397.161 1852.88 387.59 1872.19 373.312C1907.57 347.16 1923.97 310.377 1938.45 277.927C1944.74 263.83 1950.68 250.514 1957.61 239.463C1960.31 235.157 1963.02 230.704 1965.63 226.396C1974.41 211.948 1983.49 197.01 1995.15 182.803C2008.3 166.656 2023.61 152.767 2040.64 141.523C2059.94 128.781 2081.03 119.785 2103.3 114.781C2117.6 111.569 2132.25 109.59 2148.1 108.729C2169.32 107.576 2191.91 108.809 2217.16 112.489C2238.52 115.606 2261.42 120.445 2287.17 127.285C2328.7 138.315 2369.11 154.511 2404.04 174.118C2443.02 195.931 2477.61 222.662 2506.85 253.565C2533.18 281.392 2554.64 311.942 2570.61 344.371L2569.47 344.573C2535.74 276.111 2476.7 215.761 2403.23 174.642C2368.39 155.088 2328.09 138.938 2286.68 127.941C2231.2 113.205 2187.21 107.325 2148.21 109.443C2132.46 110.297 2117.92 112.263 2103.72 115.45C2050.72 127.353 2016 158.819 1996.22 183.117C1984.59 197.29 1975.52 212.21 1966.75 226.64C1964.13 230.95 1961.42 235.406 1958.72 239.714C1951.81 250.732 1945.88 264.032 1939.6 278.112C1925.1 310.633 1908.66 347.492 1873.11 373.763C1853.65 388.153 1830.03 397.802 1800.92 403.259C1781.19 406.957 1760.15 408.782 1737.03 408.782Z" fill="#FFE492"/>
<path d="M1762.43 412.335C1723.68 412.335 1686.43 406.354 1654.56 401.238C1624.58 396.426 1594.4 390.412 1562.28 382.855C1536.93 376.845 1512.09 370.166 1488.46 363.001C1417.62 341.546 1354.46 310.752 1296.77 280.668C1284.99 274.526 1273.09 268.195 1261.58 262.073C1245.61 253.572 1229.08 244.782 1212.53 236.311C1159.11 209.047 1102.12 190.505 1043.16 181.2C966.884 169.165 887.796 171.391 801.376 188.007C756.88 196.561 712.363 208.129 672.634 221.461C641.991 231.741 616.065 244.72 588.618 258.461C586.672 259.434 584.723 260.411 582.762 261.389L581.7 261.922C575.028 265.265 568.128 268.721 561.134 272.191C544.374 280.541 525.919 289.176 504.572 295.774C479.792 303.432 454.811 307.252 428.192 307.45C381.468 307.8 333.847 299.908 287.798 292.276C284.57 291.741 281.356 291.208 278.158 290.682C247.79 285.676 225.637 282.709 206.335 281.058C134.601 274.925 62.4053 272.997 8.25833 275.768L8.14844 275C62.3833 272.222 134.685 274.152 206.515 280.294C225.872 281.949 248.072 284.923 278.495 289.938C281.693 290.464 284.907 290.997 288.138 291.534C334.1 299.151 381.63 307.023 428.174 306.679C485.981 306.248 526.692 288.344 560.313 271.596C567.308 268.127 574.207 264.671 580.879 261.329L581.942 260.797C583.902 259.817 585.851 258.842 587.797 257.869C615.292 244.104 641.262 231.103 672.007 220.787C711.809 207.432 756.411 195.844 800.984 187.274C841.955 179.397 880.439 174.849 918.629 173.37C961.23 171.721 1003.23 174.105 1043.48 180.456C1102.63 189.79 1159.78 208.385 1213.36 235.723C1229.92 244.198 1246.45 252.991 1262.43 261.494C1273.93 267.616 1285.83 273.945 1297.6 280.085C1355.24 310.135 1418.32 340.897 1489.03 362.312C1512.63 369.466 1537.43 376.136 1562.75 382.137C1594.81 389.683 1624.95 395.689 1654.89 400.494C1700.86 407.873 1758.07 417.057 1814.6 407.393C1844.26 402.321 1867.84 392.69 1886.69 377.95C1921.71 350.568 1934.81 311.522 1946.37 277.071C1951.01 263.229 1955.4 250.155 1960.81 239.419C1962.81 235.448 1964.82 231.345 1966.76 227.376C1974.36 211.852 1982.22 195.797 1992.96 180.403C2004.66 163.526 2018.73 148.794 2034.79 136.623C2052.91 122.889 2073.24 112.714 2095.21 106.381C2109.48 102.269 2124.18 99.418 2140.16 97.6635C2161.69 95.3014 2185.58 95.3807 2211.17 97.899C2233.57 100.105 2258.07 104.263 2283.99 110.262C2327.14 120.249 2368.86 135.828 2404.66 155.315C2444.65 177.027 2479.51 204.015 2508.27 235.534C2534.25 264.008 2554.52 295.246 2568.49 328.376L2567.24 328.565C2537.64 258.364 2479.6 197.039 2403.8 155.887C2368.12 136.464 2326.53 120.936 2283.53 110.982C2227.79 98.0795 2180.97 93.9696 2140.39 98.423C2124.53 100.164 2109.93 102.995 2095.77 107.076C2043.49 122.145 2011.65 155.429 1994.15 180.701C1983.43 196.055 1975.58 212.087 1967.99 227.591C1966.05 231.561 1964.04 235.666 1962.04 239.642C1956.65 250.342 1952.26 263.399 1947.63 277.223C1942.06 293.797 1935.76 312.581 1926.61 330.192C1916.13 350.37 1903.4 366.144 1887.71 378.419C1878.64 385.516 1868.21 391.557 1856.71 396.373C1844.35 401.553 1830.3 405.511 1814.95 408.135C1797.38 411.14 1779.75 412.335 1762.43 412.335Z" fill="#FFE492"/>
<path d="M1785.33 416.233C1772.52 416.233 1759.1 415.485 1744.92 413.99C1717 411.047 1690.28 405.707 1666.7 400.998C1636.98 395.061 1605.94 387.675 1574.46 379.048C1549.27 372.105 1524.6 364.519 1501.12 356.498C1433.75 333.5 1375.71 302.921 1312.21 268.241C1306.57 265.159 1300.84 262.016 1295.3 258.973C1273.48 247 1250.92 234.62 1227.94 222.922C1173.63 195.339 1114.86 177.867 1053.27 170.99C975.575 162.314 891.427 169.799 803.172 193.239C757.884 205.267 713.407 220.43 674.55 237.092C645.293 249.638 621.209 264.428 595.711 280.089C593.121 281.68 590.519 283.276 587.903 284.879C581.392 288.872 574.379 293.158 567.245 297.449C552.285 306.476 534.053 316.763 512.27 324.585C487.886 333.342 462.843 337.755 435.714 338.075C386.052 338.662 335.5 328.783 286.61 319.229L284.749 318.866C260.812 314.19 235.49 309.466 212.502 306.597C142.431 297.856 69.4035 291.787 6.87695 289.508L6.96122 288.685C69.5537 290.966 142.647 297.039 212.78 305.79C235.834 308.667 261.2 313.397 285.174 318.08L287.035 318.443C335.818 327.975 386.268 337.83 435.689 337.247C492.763 336.573 532.181 317.439 566.274 296.861C573.408 292.573 580.414 288.287 586.925 284.296C589.541 282.695 592.142 281.097 594.733 279.508C620.275 263.821 644.402 249.004 673.755 236.416C712.685 219.721 757.247 204.53 802.618 192.48C844.026 181.484 884.773 173.907 923.722 169.962C968.225 165.456 1011.9 165.526 1053.52 170.173C1115.35 177.077 1174.33 194.61 1228.83 222.288C1251.83 233.997 1274.4 246.382 1296.23 258.361C1301.77 261.402 1307.5 264.545 1313.15 267.627C1376.58 302.274 1434.56 332.82 1501.81 355.778C1525.25 363.786 1549.89 371.361 1575.04 378.295C1606.48 386.909 1637.46 394.284 1667.14 400.212C1713.66 409.506 1771.56 421.07 1828.65 412.209C1859.1 407.483 1882.84 397.795 1901.22 382.588C1935.85 353.937 1945.87 310.754 1953.92 276.054C1957.06 262.537 1960.02 249.772 1964.03 239.381C1965.3 236.106 1966.58 232.731 1967.81 229.467C1974.22 212.507 1980.86 194.969 1990.81 178.01C2006.17 151.618 2035.35 116.313 2087.14 97.991C2101.45 92.9323 2116.2 89.2076 2132.25 86.6056C2174.24 79.7 2224.23 81.9344 2280.84 93.2427C2325.61 102.187 2368.64 117.149 2405.3 136.515C2446.3 158.123 2481.43 185.371 2509.71 217.509C2522.69 232.249 2534.15 247.993 2543.8 264.303C2553.01 279.882 2560.61 296.06 2566.38 312.387L2565.04 312.559C2539.59 240.614 2482.53 178.314 2404.39 137.133C2367.87 117.841 2325 102.935 2280.4 94.0242C2224.06 82.7665 2174.33 80.5387 2132.61 87.4003C2116.68 89.9825 2102.03 93.6786 2087.84 98.6998C2036.41 116.894 2007.39 152.019 1992.1 178.281C1982.18 195.196 1975.56 212.71 1969.15 229.647C1967.91 232.912 1966.64 236.289 1965.37 239.566C1961.37 249.922 1958.41 262.67 1955.28 276.166C1951.23 293.627 1946.64 313.417 1938.79 332.096C1929.77 353.559 1917.84 370.234 1902.33 383.072C1893.48 390.396 1883.12 396.573 1871.56 401.429C1859.1 406.662 1844.78 410.558 1828.99 413.006C1815.14 415.159 1800.67 416.233 1785.33 416.233Z" fill="#FFE492"/>
<path d="M1806.44 420.351C1791.08 420.351 1774.89 419.155 1757.6 416.758C1729.58 412.877 1702.62 406.436 1678.83 400.752C1648.88 393.598 1617.87 385.014 1586.64 375.238C1561.62 367.368 1537.1 358.876 1513.79 349.993C1449.62 325.569 1394.59 294.09 1336.32 260.766C1333.44 259.117 1330.56 257.466 1327.67 255.815C1300.57 240.335 1272.55 224.327 1243.35 209.534C1188.09 181.601 1127.54 165.197 1063.39 160.776C982.8 155.222 895.857 167.904 804.967 198.466C759.504 213.752 713.868 233.02 676.466 252.72C648.224 267.594 625.573 284.331 601.592 302.052C598.752 304.15 595.905 306.255 593.036 308.363C587.306 312.583 580.487 317.587 573.349 322.705C560.129 332.208 542.117 344.285 519.964 353.37C495.969 363.212 470.87 368.229 443.232 368.702C420.516 369.044 395.446 366.937 366.588 362.259C341.812 358.244 317.846 352.996 291.326 347.052C267.118 341.56 241.568 335.887 218.646 332.14C150.748 321.041 79.0286 311.322 5.48438 303.248L5.74817 302.382C79.3364 310.459 151.096 320.187 219.031 331.291C242.015 335.048 267.601 340.73 291.839 346.227C336.291 356.192 391.614 368.599 443.192 367.822C502.161 366.809 540.058 345.267 572.224 322.137C579.358 317.024 586.173 312.022 591.9 307.804C594.769 305.695 597.616 303.591 600.452 301.495C624.473 283.746 647.165 266.98 675.499 252.057C712.978 232.318 758.701 213.012 804.252 197.697C895.417 167.043 982.661 154.328 1063.56 159.902C1094.57 162.04 1125.04 167.004 1154.1 174.656C1185.29 182.865 1215.63 194.375 1244.29 208.862C1273.53 223.671 1301.57 239.688 1328.68 255.179C1331.57 256.832 1334.45 258.481 1337.34 260.13C1395.55 293.425 1450.53 324.874 1514.57 349.251C1537.86 358.121 1562.33 366.602 1587.32 374.459C1618.5 384.22 1649.47 392.792 1679.37 399.935C1726.37 411.162 1784.86 425.134 1842.69 417.031C1874.02 412.641 1897.91 402.894 1915.73 387.233C1950.05 357.321 1956.16 311.628 1961.07 274.914C1962.83 261.783 1964.49 249.381 1967.24 239.351C1967.81 237.282 1968.38 235.202 1968.95 233.11C1974.08 214.221 1979.4 194.686 1988.63 175.622C2001.82 148.202 2028.2 111.021 2079.06 89.6066C2093.25 83.6321 2108.05 79.0357 2124.32 75.5532C2146.93 70.6684 2172.13 68.3724 2199.21 68.7246C2223.93 69.046 2250.33 71.571 2277.67 76.2268C2324.05 84.123 2368.4 98.4692 2405.92 117.713C2447.93 139.216 2483.33 166.729 2511.14 199.483C2523.9 214.511 2534.94 230.579 2543.97 247.239C2552.62 263.194 2559.45 279.735 2564.26 296.401L2562.82 296.551C2541.84 223.926 2484.3 158.987 2404.97 118.383C2367.61 99.2221 2323.45 84.9353 2277.27 77.0699C2220.32 67.3708 2167.61 67.133 2124.81 76.3787C2108.66 79.8348 2093.97 84.396 2079.9 90.3242C2029.39 111.591 2003.15 148.581 1990.04 175.864C1980.83 194.877 1975.52 214.383 1970.39 233.249C1969.82 235.34 1969.25 237.423 1968.69 239.492C1965.94 249.484 1964.29 261.871 1962.53 274.982C1957.6 311.802 1951.47 357.627 1916.93 387.731C1908.34 395.279 1898.07 401.597 1886.41 406.504C1873.86 411.783 1859.26 415.613 1843.02 417.889C1831.3 419.527 1819.16 420.351 1806.44 420.351Z" fill="#FFE492"/>
<path d="M1826.27 424.637C1808.77 424.637 1790.24 422.937 1770.27 419.525C1742.01 414.698 1714.88 407.158 1690.95 400.508C1660.71 392.103 1629.71 382.318 1598.81 371.43C1573.97 362.647 1549.62 353.245 1526.44 343.491C1469.36 319.478 1420.59 290.062 1368.94 258.917C1360.5 253.825 1351.77 248.562 1343.11 243.387C1312.66 225.203 1286.66 210.21 1258.75 196.146C1202.51 167.843 1140.18 152.506 1073.5 150.56C989.711 148.114 899.961 165.989 806.748 203.687C760.442 222.417 714.847 245.377 678.365 268.341C650.881 285.641 629.395 304.474 606.649 324.412C603.831 326.882 601.002 329.36 598.155 331.841C593.084 336.268 586.372 342.102 579.443 347.951C550.285 372.623 512.19 398.025 450.741 399.324C448.825 399.361 446.901 399.379 444.981 399.379C396.997 399.379 348.009 387.969 297.892 375.23L294.763 374.428C269.94 368.062 246.49 362.05 224.784 357.674C142.985 341.181 63.875 327.26 4.09277 316.975L4.52148 316.075C64.3183 326.364 143.45 340.288 225.279 356.787C247.043 361.174 270.519 367.195 295.375 373.568L298.501 374.369C350.453 387.575 401.189 399.354 450.686 398.39C511.454 397.105 549.23 371.899 578.172 347.411C585.097 341.567 591.802 335.738 596.873 331.313C599.72 328.83 602.545 326.353 605.363 323.883C628.145 303.915 649.664 285.052 677.236 267.696C713.792 244.683 759.479 221.677 805.876 202.91C848.939 185.493 892.017 172.12 933.912 163.158C981.98 152.876 1028.97 148.323 1073.57 149.624C1140.6 151.579 1203.24 166.991 1259.75 195.426C1287.7 209.512 1313.72 224.521 1344.2 242.72C1352.86 247.895 1361.59 253.161 1370.04 258.252C1421.63 289.366 1470.37 318.754 1527.33 342.718C1550.48 352.461 1574.79 361.848 1599.6 370.618C1630.45 381.493 1661.4 391.262 1691.6 399.654C1739.01 412.829 1798.01 429.224 1856.73 421.843C1888.82 417.808 1912.87 408.003 1930.23 391.87C1964.11 360.595 1966.15 312.331 1967.79 273.549C1968.32 260.896 1968.83 248.943 1970.45 239.312L1970.48 239.092C1974.11 217.525 1977.85 195.225 1986.45 173.223C1993.89 154.032 2004.25 136.777 2017.25 121.936C2031.91 105.203 2049.98 91.5023 2070.96 81.211C2085 74.3251 2099.86 68.8548 2116.37 64.4895C2160.99 52.6264 2215.66 50.7949 2274.49 59.1975C2298.16 62.5788 2321.51 67.7013 2343.9 74.4198C2366.41 81.1779 2387.49 89.4176 2406.54 98.9054C2449.57 120.305 2485.24 148.077 2512.56 181.452C2537.12 211.449 2554.26 245.669 2562.14 280.409L2560.6 280.534C2543.74 206.182 2487.23 140.242 2405.54 99.6252C2367.35 80.6012 2321.9 66.9352 2274.13 60.1132C2215.64 51.7591 2161.31 53.5708 2117.01 65.3524C2100.62 69.6847 2085.89 75.111 2071.95 81.9418C2032.77 101.157 2003.73 132.797 1987.97 173.441C1979.4 195.386 1975.66 217.655 1972.04 239.191L1972 239.411C1970.39 249.007 1969.88 260.942 1969.35 273.578C1967.7 312.478 1965.66 360.888 1931.53 392.383C1923.16 400.162 1912.96 406.617 1901.23 411.565C1888.58 416.901 1873.72 420.668 1857.04 422.766C1847.11 424.012 1836.88 424.637 1826.27 424.637Z" fill="#FFE492"/>
<path d="M451.88 430.027C430.423 430.027 407.058 427.515 380.688 422.386C354.486 417.29 328.574 410.254 304.473 403.413C300.109 402.167 295.778 400.923 291.476 399.688C270.064 393.54 249.838 387.732 230.936 383.209C155.563 365.177 83.7188 348.971 14.238 333.302L2.72559 330.704L3.30449 329.777L14.8169 332.375C84.3014 348.049 156.157 364.255 231.544 382.291C250.498 386.825 270.749 392.639 292.187 398.796C296.485 400.031 300.816 401.275 305.176 402.519C354.651 416.563 407.215 430.174 458.197 428.961C520.866 427.394 558.422 398.063 584.136 372.688C590.724 366.199 597.07 359.731 601.863 354.822C604.508 352.117 607.135 349.413 609.755 346.717C631.483 324.362 652.005 303.247 678.994 283.338C714.62 257.062 760.262 230.351 807.521 208.129C851.365 187.511 895.608 171.221 939.026 159.712C988.828 146.511 1037.47 139.66 1083.6 139.35C1153.02 138.729 1217.5 153.077 1275.21 181.992C1307.21 198.04 1335.89 215.4 1359.74 230.265C1372.71 238.355 1385.69 246.648 1398.24 254.667C1442.66 283.058 1488.59 312.413 1540.1 336.19C1563.11 346.814 1587.27 357.107 1611.88 366.782C1642.35 378.729 1673.29 389.696 1703.85 399.378C1751.61 414.51 1811.05 433.342 1870.77 426.659C1903.64 422.98 1927.84 413.118 1944.74 396.509C1978.18 363.817 1975.92 312.908 1974.1 272.003C1973.57 259.907 1973.06 248.479 1973.67 239.28C1975.04 218.541 1977.11 194.438 1984.28 170.831C1990.33 150.828 1999.45 132.73 2011.4 117.043C2024.92 99.2983 2042.25 84.4216 2062.89 72.8249C2076.57 65.14 2091.9 58.6174 2108.45 53.4354C2132.06 46.0168 2158.57 41.3522 2187.22 39.5735C2214.06 37.9071 2242.35 38.7832 2271.32 42.1755C2295.74 45.0372 2319.82 49.7437 2342.88 56.1673C2366.08 62.6304 2387.71 70.683 2407.17 80.1003C2429.6 90.9442 2450.22 103.749 2468.47 118.162C2485.75 131.817 2501.07 147.046 2514 163.424C2538.19 194.064 2554.11 228.991 2560.03 264.422L2558.39 264.521C2545.67 188.435 2490.18 121.499 2406.13 80.873C2367.64 62.2452 2319.66 48.8478 2271 43.1485C2210.84 36.102 2154.9 39.9631 2109.21 54.3137C2092.79 59.4539 2077.58 65.9258 2064.01 73.5491C2025.12 95.3997 1998.83 128.189 1985.9 171.009C1978.75 194.553 1976.68 218.614 1975.31 239.32C1974.71 248.486 1975.21 259.896 1975.75 271.977C1976.64 292.156 1977.66 315.031 1974.26 337.143C1970.31 362.802 1961.12 382.39 1946.15 397.026C1938 405.035 1927.88 411.628 1916.07 416.621C1903.32 422.014 1888.18 425.719 1871.08 427.632C1862.45 428.598 1853.83 429.036 1845.26 429.036C1793.93 429.036 1744.2 413.279 1703.08 400.251C1672.48 390.554 1641.49 379.572 1610.99 367.608C1586.33 357.919 1562.14 347.611 1539.1 336.971C1487.48 313.146 1441.5 283.76 1397.04 255.343C1384.49 247.326 1371.52 239.036 1358.56 230.95C1334.74 216.102 1306.1 198.766 1274.16 182.749C1216.76 153.989 1152.66 139.724 1083.63 140.336C975.223 141.067 874.199 178.025 808.539 208.903C761.376 231.082 715.825 257.736 680.277 283.959C653.368 303.808 632.875 324.89 611.181 347.21C608.561 349.907 605.93 352.61 603.285 355.317C598.488 360.229 592.139 366.701 585.547 373.197C574.753 383.849 557.807 399.355 535.361 410.979C524.46 416.623 512.86 421.059 500.882 424.165C487.527 427.627 473.186 429.573 458.266 429.945C456.152 430 454.023 430.027 451.88 430.027Z" fill="#FFE492"/>
<path d="M458.769 460.675C437.287 460.675 413.969 457.969 387.738 452.449C360.58 446.734 333.73 438.699 311.05 431.591C304.081 429.403 297.127 427.184 290.4 425.037C271.596 419.039 253.833 413.37 237.085 408.743C176.94 392.123 117.187 375.897 59.3977 360.203C40.2825 355.012 20.5188 349.646 1.36328 344.433L2.08142 343.48C21.2369 348.692 41.0007 354.059 60.1159 359.25C117.905 374.943 177.665 391.172 237.814 407.794C254.606 412.435 272.391 418.107 291.217 424.115C297.94 426.261 304.895 428.478 311.856 430.666C358.895 445.402 413.456 461.001 465.701 459.532C529.847 457.688 565.876 425.66 590.102 397.965C596.313 390.87 602.318 383.747 606.854 378.334C609.184 375.555 611.5 372.779 613.812 370.01C634.594 345.102 654.223 321.576 680.757 298.984C715.269 269.6 760.875 239.188 809.167 213.351C876.42 177.524 980.364 133.823 1093.63 129.084C1165.67 125.988 1231.97 139.271 1290.69 168.567C1317.07 181.735 1343.15 196.925 1375.28 217.822C1391.52 228.382 1407.63 239.327 1423.21 249.909C1463.74 277.441 1505.65 305.911 1552.88 329.675C1575.75 341.19 1599.74 352.388 1624.17 362.959C1653.76 375.747 1684.68 387.912 1716.09 399.116C1764.34 416.223 1824.38 437.517 1884.82 431.489C1917.95 428.253 1942.99 418.05 1959.25 401.166C1992.22 366.994 1985.15 311.089 1979.98 270.269C1978.53 258.813 1977.16 247.994 1976.89 239.265C1976.29 219.867 1976.34 194.29 1982.12 168.457C1992.09 123.692 2016.55 88.6998 2054.81 64.4563C2068.22 55.9151 2083.61 48.4944 2100.52 42.3988C2124.59 33.7167 2151.74 27.8765 2181.23 25.0434C2209.02 22.3753 2238.26 22.4172 2268.14 25.1689C2293.36 27.5419 2318.16 31.8434 2341.85 37.9499C2365.78 44.1181 2387.96 51.9769 2407.8 61.3084C2430.73 72.0906 2451.68 84.9399 2470.06 99.5018C2487.49 113.302 2502.75 128.747 2515.44 145.411C2539.26 176.697 2553.94 212.328 2557.92 248.452L2556.18 248.52C2547.62 170.698 2493.15 102.762 2406.73 62.1339C2367.55 43.702 2318.23 30.9408 2267.88 26.2035C2205.81 20.491 2148.25 26.4016 2101.42 43.297C2084.64 49.3419 2069.39 56.7032 2056.08 65.1762C2018.07 89.2589 1993.77 124.053 1983.85 168.598C1978.09 194.36 1978.04 219.887 1978.63 239.248C1978.91 247.945 1980.27 258.752 1981.72 270.192C1984.39 291.292 1987.42 315.21 1985.69 338.56C1983.67 365.748 1975.52 386.399 1960.76 401.692C1952.82 409.941 1942.78 416.677 1930.91 421.713C1918.05 427.175 1902.64 430.811 1885.11 432.524C1857.92 435.234 1828.66 432.799 1795.65 425.079C1766.96 418.367 1739.47 408.62 1715.21 400.021C1683.76 388.801 1652.79 376.619 1623.16 363.813C1598.69 353.227 1574.67 342.013 1551.76 330.483C1504.44 306.671 1462.48 278.17 1421.9 250.609C1406.33 240.029 1390.23 229.091 1374.01 218.54C1341.93 197.68 1315.89 182.519 1289.57 169.381C1231.21 140.253 1165.33 127.049 1093.75 130.125C980.969 134.847 877.369 178.414 810.317 214.133C762.121 239.917 716.61 270.265 682.172 299.587C655.71 322.115 636.111 345.608 615.362 370.479C613.05 373.251 610.734 376.026 608.404 378.805C603.864 384.222 597.855 391.352 591.637 398.454C567.198 426.396 530.807 458.709 465.778 460.578C463.466 460.642 461.125 460.675 458.769 460.675Z" fill="#FFE492"/>
<path d="M465.796 491.325C407.099 491.325 345.51 469.666 290.912 450.463C274.135 444.564 258.288 438.99 243.229 434.277L0 358.161L0.846411 357.185L244.075 433.301C259.175 438.026 275.04 443.606 291.839 449.514C348.548 469.459 412.825 492.064 473.205 490.105C538.765 487.981 573.302 453.257 596.067 423.246C603.512 413.43 610.701 403.442 617.655 393.783C636.675 367.367 656.34 340.05 682.512 314.627C703.294 294.44 729.111 273.27 757.17 253.407C787.952 231.616 820.91 211.623 855.121 193.986C892.842 174.542 931.197 158.456 969.116 146.18C1011.06 132.602 1052.38 123.737 1091.93 119.829C1171.18 112.004 1243.25 123.88 1306.14 155.132C1358.41 181.102 1402.83 213.215 1445.79 244.272C1483.19 271.304 1521.85 299.255 1565.64 323.148C1616.21 350.744 1670.95 376.212 1728.33 398.839C1776.68 417.905 1836.85 441.636 1898.86 436.302C1951.24 431.798 1981.52 410.744 1991.43 371.934C1999.87 338.923 1991.84 299.763 1985.4 268.299C1983.2 257.577 1981.13 247.448 1980.11 239.235C1974.49 193.958 1978.07 156.581 1991.06 124.972C1999.16 105.25 2011.12 87.6699 2026.6 72.7205C2043.89 56.0211 2066.09 42.0997 2092.59 31.3439C2115.5 22.0388 2141.33 15.2807 2169.36 11.2566C2196.04 7.42628 2224.12 6.14289 2252.84 7.44169C2309.32 9.99525 2364.57 22.4461 2408.41 42.4982C2431.84 53.2165 2453.12 66.1121 2471.65 80.8237C2489.21 94.767 2504.42 110.43 2516.86 127.38C2540.3 159.311 2553.76 195.648 2555.79 232.461L2553.96 232.499C2549.64 154.104 2494.81 83.4036 2407.3 43.3765C2314.36 0.868457 2182.43 -3.8094 2093.6 32.2575C2005.61 67.9854 1969.08 135.661 1981.93 239.153C1982.94 247.34 1985.02 257.456 1987.21 268.165C1993.67 299.697 2001.71 338.941 1993.24 372.102C1988.62 390.164 1979.35 404.68 1965.67 415.248C1957.97 421.19 1948.7 426.046 1938.1 429.678C1926.82 433.544 1913.7 436.139 1899.12 437.394C1893.16 437.907 1887.09 438.164 1880.93 438.164C1858.45 438.164 1834.52 434.75 1808.29 427.833C1778.74 420.041 1750.23 408.796 1727.32 399.762C1669.86 377.101 1615.05 351.601 1564.4 323.965C1520.51 300.021 1481.81 272.037 1444.37 244.976C1401.47 213.959 1357.1 181.885 1304.96 155.982C1242.49 124.943 1170.92 113.144 1092.22 120.917C933.032 136.639 769.053 232.653 684.058 315.208C657.956 340.561 638.317 367.84 619.322 394.221C612.364 403.885 605.172 413.879 597.719 423.704C582.605 443.628 567.678 457.895 550.743 468.598C540.172 475.277 528.704 480.542 516.657 484.247C503.261 488.366 488.671 490.708 473.289 491.208C470.805 491.285 468.302 491.325 465.796 491.325Z" fill="#FFE492"/>
</g>
</svg>
